<?xml version="1.0" encoding="UTF-8"?>
<svg id="Layer_1" xmlns="http://www.w3.org/2000/svg" version="1.1" viewBox="0 0 765.4 765.4">
  <!-- Generator: Adobe Illustrator 29.1.0, SVG Export Plug-In . SVG Version: 2.1.0 Build 142)  -->
  <defs>
    <style>
      .st0 {
        fill: #fff;
      }
    </style>
  </defs>
  <path class="st0" d="M308.3,227.2L214.9,63.8s-97.1-3.1-131.5,57.6c-34.4,60.7-5.6,126.5,5.3,169.5,17.6,66.9,132.5,196.2,156.3,222.5l-.2.2s.9.8,2.4,2.2c1.4,1.5,2.2,2.4,2.2,2.4l.2-.2c25.9,24.2,153.1,141.3,219.7,160.1,42.8,11.7,108.1,41.6,169.3,8.2,61.3-33.3,59.9-130.5,59.9-130.5l-161.8-96.3s-79.5,46.7-99.8,48.8c-20.2,2.1-181.5-162-179-182.2,2.4-20.3,50.5-99,50.5-99h-.1Z"/>
</svg>