<?xml version="1.0" encoding="UTF-8"?>
<svg xmlns="http://www.w3.org/2000/svg" version="1.1" viewBox="0 0 1007.6 942.4">
  <!-- Generator: Adobe Illustrator 28.7.3, SVG Export Plug-In . SVG Version: 1.2.0 Build 164)  -->
  <g>
    <g id="Layer_1">
      <path d="M663.7,377.9h-91.6c58.2-26.3,98.9-85,98.9-152.9s-75.2-167.7-167.7-167.7-167.7,75.2-167.7,167.7,40.6,126.6,98.9,152.9h-91.6c-49.5,0-89.7,40.2-89.7,89.7v288.7c0,49.5,40.2,89.7,89.7,89.7h320.8c49.5,0,89.7-40.2,89.7-89.7v-288.7c0-49.5-40.2-89.7-89.7-89.7h0ZM359,224.9c0-79.6,64.7-144.3,144.3-144.3s144.3,64.7,144.3,144.3-64.7,144.3-144.3,144.3-144.3-64.7-144.3-144.3h0ZM730,756.2c0,36.6-29.7,66.3-66.3,66.3h-30.8v-275.2h-23.4v275.2h-212.4v-275.2h-23.4v275.2h-30.8c-36.6,0-66.3-29.7-66.3-66.3v-288.7c0-36.6,29.7-66.3,66.3-66.3h320.8c36.6,0,66.3,29.7,66.3,66.3v288.7h0Z"/>
    </g>
  </g>
</svg>