<?xml version="1.0" encoding="UTF-8"?>
<svg xmlns="http://www.w3.org/2000/svg" version="1.1" viewBox="0 0 1020.5 1020.5">
  <!-- Generator: Adobe Illustrator 28.7.3, SVG Export Plug-In . SVG Version: 1.2.0 Build 164)  -->
  <g>
    <g id="Layer_1">
      <g>
        <path d="M787.1,109.7H233.3c-49.5,0-89.7,40.2-89.7,89.7v616.2c0,49.5,40.2,89.7,89.7,89.7h553.8c49.5,0,89.7-40.2,89.7-89.7V199.4c0-49.5-40.2-89.7-89.7-89.7h0ZM167,412.4h686.4v138H167v-138h0ZM853.4,815.6c0,36.6-29.7,66.3-66.3,66.3H233.3c-36.6,0-66.3-29.7-66.3-66.3v-241.8h686.4v241.8h0ZM167,389v-189.6c0-36.6,29.7-66.3,66.3-66.3h553.8c36.6,0,66.3,29.7,66.3,66.3v189.6H167Z"/>
        <path d="M800,345.5h-270.1v-178.6h270.1v178.6h0ZM553.4,322.1h223.2v-131.8h-223.2v131.8h0Z"/>
        <path d="M490.5,345.5H220.4v-178.6h270v178.6h0ZM243.8,322.1h223.2v-131.8h-223.2v131.8h0Z"/>
      </g>
    </g>
  </g>
</svg>