<?xml version="1.0" encoding="UTF-8"?>
<svg xmlns="http://www.w3.org/2000/svg" version="1.1" viewBox="0 0 497.1 115.8">
  <!-- Generator: Adobe Illustrator 28.7.3, SVG Export Plug-In . SVG Version: 1.2.0 Build 164)  -->
  <g>
    <g id="Layer_1">
      <g>
        <path d="M352.6,13.5c-.6-.1-1.2-.3-1.5-.3-.4.6-.7,1-1,1.5-.1,0-.1-.1-.2-.1-.1-.4-.1-.8-.1-1.1-.4-.2-.6-.5-.9-.6s-.7-.1-1-.2c0,.2-.1.5-.1.8v1.5c-1.6-.4-2.2-.2-2.6.7-.4-.2-.7-.5-1-.5-1.2,0-2.5-.4-3.6.3-.1,0-.2,0-.3-.1-.3-.1-.6-.2-1-.3-.1.4-.1.7-.1.9-1,.5-1.9.8-2.9.1,0,1.5-1.3.7-1.6,1.2-.4-.2-1-.6-1.1-.6-.5.5-1.3.7-1.2,1.6,0,.6.2,1.3-.1,1.7-.6.9-.4,1.8-.3,2.7,0,.7.4,1.3,1.3,1.2h2.6c0,1.1.2,1.8,1.2,2,.1,0,.1.2.2.2.4.5.8,1,1,1.3.5-.1,1.1-.3,1.3-.2.8.7,1.6,1.5,2.4,2.2,0,0,.1,0,.1-.1,1-.6,2.1-.5,2.9.2.3.3.3.9.4,1.4v.3c0,.9.8,1.7,1.7,1.8.8.1,1.6.3,2.3.5v2.8h1.3c.2-1.3.4-2.5.6-3.7.3,0,.4,0,.5.1.3.1.6.1.8.2,0-.6,1-.9.4-1.6-1-1.3-1-2,0-3.3-.4-.5-.7-1-1.1-1.5.2-.2.3-.4.4-.5.8.4,1.5.7,2.2,1.1q.5-.6.3-1.4c-.2-.9-.5-1.8-.5-2.7s.4-.9.5-1.3v-4.8c0-.3-.1-.6.1-.8.5-.5.2-1,.1-1.6-.1-.5,0-1,0-1.5s.1-.6.2-.9c-.9.2-1.6.3-2.3.5-.2.5-.2.8-.3.9M319,11.4c1.5-.2,2.8-.4,4-.6,0-.1-.1-.2-.1-.4.3-.2.7-.5,1-.6.8-.3.7-1,1.1-1.5.1-.2,0-.5,0-.7q0-1.2.8-2.3c1.1,1.2.1,2.8.7,4,.7-.9,1.4-1.8,2.1-2.7.4.6.6,1.5,1.4,1.7.3-.7.6-1.3.8-1.8.5.2.8.3,1.3.5.1.2.2.4.3.8.4-.9.8-1.6,1.2-2.4.3-.8,1.7-1.3,2.4-.9.9.5,1.5.2,1.9-.7q.5-1.4,2-1.3c.3,0,.6,0,1,.1-.2,1.3.5,2.3,1.4,2.6,1.4.6,2.1-.6,2.7-1.8.8.5,1.4,1,2.1,1.4.4-.2.9-.5,1.5-.9.4.5.9,1.1,1.3,1.5.5-.2.9-.4,1.3-.5,1.1-.1,1.2,0,1.4,1.1.1.5.4,1.1.8,1.5.3.4.9.5,1.3.8l-.3.3c.1,0,.2,0,.2-.1.3-.8.9-1.1,1.8-1,.2,0,.5-.7.7-1.1l-.2-.2c.2,0,.3,0,.5-.1.1,0,.3-.1.5-.2-.2-.2-.3-.4-.5-.7,1-.2,2-.4,3-.6,0,.5.1.9.1,1.6.7-.1,1.3-.2,1.9-.4.7-.3,1,.2,1.5.5.2.1.5.3.8.5.1-.7.1-1.2.1-1.7,1.6.6.7,1.9.9,2.5.7.5,1.1.8,1.6,1.1-.1.1-.1.2-.2.3-.7-.2-1.5-.3-2.2-.5,0,.1-.1.2-.1.2.3.5.6,1,.9,1.5.1.1,0,.3,0,.5-.1.5-.3.9-.4,1.4-.1.2-.2.4-.3.7,0,.3-.1.6,0,.9s.4.6.3.8c-.4.8,0,1.5,0,2.2,0,1.1-.6,2-.9,3-.3,1.5,0,3.1.1,4.7,0,.2.2.3.2.5.2.7.5,1.3.7,1.9.5-.4.9-.8,1.4-1.2.2-.1.5-.2.7-.1,1.1.4,1,.5,1.4-.7.9,1.1,1.8.2,2.7.1h.3c.5,0,1.4.1,1.5-.2.5-.7.8-1.5.8-2.3.1-1.1-.3-2.2-.2-3.3,0-.7.3-1.4.8-2,.6-.9.7-2.9.3-3.9-.3-.6-.2-1.5-.2-2.2.7-.2,1.6.1,1.8-1-.3-.1-.7-.2-1.1-.3-.1-.3-.3-.7-.5-1.1.2-.1.4-.1.5-.2.2-.2.7-.7.6-.8-.8-1.2.6-2.3,0-3.4,1-.6,1.9,1.4,2.5.2.8.1,1.5.1,2.1.2.5.1,1.2-.3,1.4.6,0,.1.2.2.3.2,1-.2,1.5.3,1.9,1,.5.9,1.3,1,2.1.9h1.2c.2.7.3,1.3.5,2-.1,0-.3.1-.7.2v1.8c.7-.6,1.3-1.2,2-1.9.1,0,.2.1.3.2,0,.4,0,.7-.1,1.1s-.3.8-.3,1.2c-.1,1.2-.5,1.6-1.9,1.4,0-.3-.1-.6-.1-.9h-1c.1.4.2.9.3,1.4-.3.3-.7.8-1,1.1.4.9.9,1.8,1.3,2.7.1.2-.1.5-.3.7-1.4,1.6-1.6,3.5-1.5,5.5,0,.4.7.8,1.2,1.2.4.3.9.6,1.2.8.6-.1,1.3-.3,1.7-.2.3.1.5.8.7,1.2.2.4.3.8.5,1.2.5-.5.8-.9,1.2-1.2.2-.2.7-.5.8-.4.3.3.6.7.8,1.1.1.2,0,.5,0,.9,1.4-.2,2.1.7,2.6,1.5-.1,1.1-.3,2-.4,3-2.1-.5-1.7,1.2-1.9,2.4h-.3c0-.4-.1-.7-.1-1.1,0-1.2-.5-1.8-1.7-1.8-.3.6-.6,1.2-.9,1.8-1-.2-1.6.3-2,1.2-.4-.9-.6-2-1.8-1.6-.4.1-.7.5-.8.9-.1.2.4.5.7.9-.2.5-.5,1.2-.8,1.9h0c-.7,1.2-.7,1.3-.3,2.6.3,0,.5.1.8.1.2.8.5,1.5.7,2.3-.4.1-.7.1-1.2.2-.2,1-.3,2-.5,3.1.4,0,.7.1.9.1.6.2,1,.9.7,1.5-.6,1.1-.5,1.4.7,1.4s.2,0,.4.1c-.4.6-.8,1.1-1.2,1.7-.3.5-.7,1-.8,1.5-.2,1-.8,1.7-1.5,2.4-.2.2-.7.3-1,.3-.7,0-1.2.2-1.5,1-.2.5-.6.5-1,.2-.2-.2-.6-.3-.9-.5-.4.1-.8.6-1.7-.2-.5-.5-1.6-.4-2.5-.4s-1.7,0-2.3-.8c-.1-.1-.3-.2-.4-.2-1.4-.3-1.4-.4-1.4-1.8v-2.5c0-.5-.2-.9-.4-1.5.3-.2.7-.6,1.3-.9.5-.2.6-.5.6-1s.1-1.1,0-1.6c-.2-.8-.5-1.5-.7-2.3-.1-.5-.3-1-.3-1.4s.3-.4.6-.5c.2-.1.5,0,.9-.1,0-.3,0-.5-.1-.8-.4-1-.2-1.8.5-2.8.3-.4.1-1.2-.1-1.8-.2-.6-.5-1.2-.7-1.6-.8-.3-1.5-.6-2.2-.8-.2-.1-.6.1-.7.3-.4.7-1,.8-1.7.8-1.2,0-1.9-.7-2.4-1.7-.5.5-.9,1-1.5.2-.4-.5-1.3-.1-1.6.6-.1.3-.4.6-.5.9-.1.2,0,.4.1.6.4.6.4.8-.2,1.4,1,1.1,1.3,2.3.2,3.6-.4.1-.7-.1-.8-.8-.2-.7-.6-1.4-1-2.2-.4.3-.9.6-.8,1.3v1c0,.7,0,1.4,1,1.2.2,1.1-.3,2.3.9,3.1-.7.3-1.3.6-1.9.8.2.3.3.5.4.7.2.5.3,1.1.9.3,0,0,.5.2.5.3-.1,1,.5,1.8.9,2.7.2.5,0,1.2-.1,1.8,0,.3-.2.6-.2,1-.1.9-.4,1.3-1.3,1.4-.2,0-.3.1-.5.1-.8,1.9-1.5,3.7-2.4,5.8h-1.6c-.2,0-.4-.2-.5-.3-.3-.3-.5-.7-.7-1-.8.8-2.3,1.2-3,.7-.3-.2-.4-.8-.5-1.2-.1-.2,0-.6-.1-.6-.8-.3-.6-1-.6-1.6s-.1-.9-.8-.8h-1.8c-.5.8-.7,1.7-1.2,2-.5.2-1.3-.2-1.8-.3-.3.5-.5,1-.8,1.5-.1.1-.2.2-.3.2-1.2-.1-1.1.8-1.1,1.6s-.1,1-.1,1.5h-.3c-.1-.3-.2-.6-.4-1.1-.6,1.1-1.6,1.2-2.6,1.5-.5.2-1,.7-1.5,1.1-.1.1-.1.3-.1.3-1.1-.4-1.9.8-3,.7-.3,0-.6.1-.9.3-.5.2-1,.5-1.6.6h-.1q-.4,1.8-2.2,1.8c-.5,0-1.1.3-1.6.4-.8.1-1.6.3-2.3-.2-1,.6-1.9,1.3-2.9,1.9-.1.1-.3.1-.5,0-.7-.1-1.4-.2-1.4,1-.5-1-1.9-1.1-1.8-2.4-1.3-.4-2.2.3-2.4,1.6-.1.4-.3.8-.6,1-.9.3-1.8.5-2.8.8,0-.4-.1-.8-.1-1.2-.1-.8-.5-1-1.3-.8-.4.2-1,.2-1.4.2s-.8,0-1,.5c-.1.3-.5.5-.9.9-.2-.8-.2-1.3-.4-1.8-.4-1-1-1-1.7-.1-.1.1-.3.3-.4.3h-3.3c0-.4,0-.7-.1-.9-.1-.2-.2-.5-.4-.6-.9-.2-1.9-.5-2.8-.6-.8-.1-1.2-.3-1.1-1.2.1-.7,0-1.3,0-2-.3-.1-.6-.2-1-.4.4-.4.8-.6,1.3-1.1,0,.5.1.8.1,1,0,.5.2.8.8.8s.8-.3.8-.8-.1-.6,0-.9.3-.5.4-.8c.1-.2.4-.4.4-.6,0-.9,0-1.9-.8-2.5-.4-.3-.3-.6-.1-1.1.3-.9.4-1.9.7-3.1.5.3.8.5,1.1.6-.1.5-.2.8-.4,1.3.4,0,.7.1,1,.1.1-.3.1-.6.2-.9h.1c1.5-.3,1.8-.1,2.3,1.3.1.3.3.5.5.7.4.3.8.4.9,1.1.2.9,2.2,1.2,2.9.5.1-.1.4-.2.5-.1.3.2.4.5.6.7.2-.2.5-.5.7-.6s.7-.3.8-.2c.7.8,1.8.3,2.4.8.1,0,.2-.1.2-.1q.7-.8,1.5,0c.2.2.5.4.7.6.1,0,.2,0,.2-.1.3-.4.5-1.2.7-1.2.9-.1,1.8,0,2.7.2.4.1.7.3,1-.1.1-.2.5-.2.8-.2.7,0,1.3.3,2-.4.3-.3,1-.1,1.5-.1,0,.4.1.7.1,1.1h.9c0-.7,0-1.4.9-1.5,1.9-.2,2.2-.1,2.8,1.1.3-.5.5-.9.8-1.2.6-.7.5-2,1.9-2s.3-.1.3-.2c.3-1.7,2-1.4,3-2.2.2-.1.4-.3.6-.4.5-.2,1-.5,1.7-.8.1-.4.3-1.1.6-1.7.1-.2.5-.5.8-.5.6,0,.8-.3.7-.8-.1-1,.4-2-.4-2.9-.1-.1,0-.3-.1-.4-.2-.7-.4-1.5-.7-2.2-.1-.3-.4-.5-.4-.7.2-1.1-.8-1.7-1.2-2.5-.1-.1-.2-.3-.2-.4.2-1.4-.8-1.7-1.9-1.9-.3-.1-.7-.3-1-.5-.5-.4-1-.9-1.5-1.3-.4-.4-.8-.8-1.3-1.2,0-.1.1-.2.1-.2h-4.2c0-.5-.1-.9-.1-1.4-.2,0-.5-.1-.7-.1-1.1.3-1.4-.7-1.6-1.3-.4-1-.9-1.3-1.9-1-1.4.4-1.5.4-2.1-.8-.1-.2-.3-.4-.5-.6-.6-.4-1.2-.9-1.9-1.4q0,.1,0,0c-.2-1.4-.4-2.7-.6-4.2-.5,0-.9-.1-1.5-.1,0-.5-.1-1.1-.1-1.7-.2-.1-.5-.1-.9-.3.3-1.3.5-2.6.8-4.1-.4-.1-.8-.1-1.2-.2v-1.4c.4.2.7.3,1,.4.3.2.5.1.9-.2,1-.8,0-1.2-.1-1.7.3-.2.1-.6,0-1"/>
        <path d="M104.1,31.2c.3-.1.6-.1.7-.3.3-.4.5-.9.6-1.4.3-.8.9-1.2,1.4-.8.8.6,1.6.5,2.4,0,.8-.4,1.4-1,1.7-1.8,0-.1.4-.2.5-.1.4.2.7.5,1.1.7.7.3,1.4-.2,1.5-1,0-.5.1-.9.1-1.6.5.2.9.4,1.3.4.3.1.7.1.9-.1.8-.3.6-1.1.6-1.8h2.2c0-.6.1-1.2,0-1.7-.1-.4-.5-.8-.8-1.1-.1-.1-.5.3-.8.4s-.8.1-1-.1c-.6-.5-1.2-1-2-.8-.6.1-1.1.3-1.7.4-.9,0-1.8-.3-2.6-.3-1.4-.1-3.2-.7-4.3.9,0,0-.3-.1-.5-.2-.3-.1-.7-.3-.7-.2-.2.4-.5.8-.5,1.3-.1.6.1,1.3,0,1.9-.3.9-.5,1.9-1.6,2.4-.8.3-1.4,1-1.6,1.8-.2.8-.3,1.6-.4,2.4-.1.6-.2,1.1.5,1.4.4.1,1,.4,1.3.3.4-.2.8-.6.8-1.2-.1-.8.3-1.2,1-1.2v1.4h0ZM71.8,37.6c0-1.3-.3-2.6,0-3.6.5-1.3.2-2.5.3-3.8h-1.5c-.3-1.2-.5-2.3-.7-3.4-.6-.2-1.2-.2-1.4.7-.2,0-.3-.1-.4-.1-.7.1-1.6-.2-2,.6-.3.6-.5,1.4-.7,2.1-.6.1-1.2-.1-1.6.2-.3.3-.2.9-.4,1.6-.4-.2-.7-.4-1.1-.5-.3-.1-.8-.2-1.1-.1-.2.1-.3.5-.4.8,0,.4,0,.8,0,1.2,0,.7-.3.9-.9.9s-.7-.1-1.3-.1c.2.6.4,1,.5,1.4-.3.8-.6,1.5-1.4,1.4-.3.6-.5,1-.7,1.5,0,.2,0,.6,0,.8v1c0,.4-.2.9,0,1.2.3.6.2,1.8,0,2.5-.2.8,0,1.7,0,2.5s0,.8.2,1.2h-.2q1.1,1.2.4,2c.9,1.1.2,2.5.5,3.7,1.1.2,1.3.5,1.2,1.5,0,1.3-.3,2.7-.4,4,0,.3,0,.6,0,1,.6-.6,1.2-1.1,1.8-1.7.5,1.2.8,2.2,1.3,3.1.2.4.6.9,1.3.6.8-.4,1.5-.8,2.3-1.1.8-.3,1.5-.6,2.3-.9.5-.2,1-.4,1.3-.5,0-1-.2-1.7-.3-2.4.7,0,1.1-.1,1.7-.1,0-1.1,0-2.1,0-3.1s.4-2,.6-3h1.4c0-.7.2-1.4,0-1.8-.7-.9-.3-1.8-.3-2.7s0-.3,0-.4c-.2-1.1-1.3-2.4.2-3.2,0-.5-.2-.8,0-1.1,0-.7.3-1.4.4-2.1,0-.2,0-.4.2-.6,0-.3.2-.6.4-1.1h-1.6ZM83.8,35.3c-.5.9-.6,1.7.3,2.3.1.1.2.4.2.6.1.4.3.7.4,1.1.1.3.1.7,0,.9-.4.6-.5,2.1-.1,2.9.7-.8,1.5-.9,2.4-.6.2.1.7-.3.9-.5s.3-.6.5-1.1c-.4,0-.9-.1-1.4-.1-.4-1.4.2-2.5.8-3.5-.2-.7-.3-1.3-.5-2.1.7.2,1.1.3,1.7.4.1-.3.3-.8.3-1.2,0-.9.1-1.7.9-2.2-.6-1.5-.3-3-.4-4.5,0-.2.6-.5.9-.7-.6-.7-.6-1.4,0-2.2-.5-.3-.9-.5-1.4-.8.1-.8-.5-1.9.9-2.4.1,0,.1-.5,0-.7-.8-1.3-.2-2.6,1.4-2.8.8-.1,1.4.1,2,.7.1.2.6.1.8.1.5-.1.9-.4,1.5-.7.2.4.5.9.9,1.5.6-.1,1.5.3,2.1-.5s.4-.9.5-1.3c.3-.9.5-1.7.8-2.8.7.2,1.4.3,2.1.5.7.2,2.1-.3,2.5-1,.1-.3.2-.6.4-1,.4.1.8.3,1.3.5.2-.5.4-1,.7-1.6s.3-.3.5-.4c.2,0,.4.1.5.2.2.2.5.5.6.7.6-.3,1.1-.9,1.5-.8.9.2,1.8.4,2.7-.1.2-.1.5.2.7.2.4.1.9.3,1.2.1,1.7-.7,2.1-.4,2.3,1.4,0,.2.1.4.3,1,.9-1.1,1.6-2,2.4-2.8.1-.2.6-.2.8-.1.3.1.5.4.7.6.2-.1.4-.3.7-.5.1.8.1,1.4.2,2.1.3,0,.6.1,1,.1v3c1.2-1.1,1-2.6,1-4.1h1.4v1.4c0,.4.2.7.2,1,.4-.1.7-.2,1.2-.3.3,1.7,1.7.5,2.7,1v2.7c.5.1.9.1,1.3.1v.8c-.3.1-.6.1-.9.2v2.8c.5,0,.9.1,1.4.1.2.8.2,1.4-.6,2-.4.3-.6.9-.9,1.3-.2.3-.3.5-.4.8-.2-.1-.4-.3-.6-.4-.3-.1-.5-.1-.8-.2-.3,1.3-.5,2.6-.8,3.8-.7-.4-1.4-.9-2.2-1.3-.3-.2-.5-.3-.8-.5-.1.3-.3.7-.3,1q0,.9.7,1.3c-.1.7-.2,1.4-.3,2.3-.4,0-.9-.1-1.2-.1.1-1,.1-1.9.2-2.9h-.9c-.2.6-.3,1.2-.5,1.8.1.3.3.7.3,1.1s.1,1.1-.5,1c-.3,0-.7-.5-.9-.9-.2-.2-.1-.6-.2-.9-.9.3-1.2.8-1.3,1.6-.2,1.4-.6,2.8-1,4.1-.1.3-.7.5-1.2.6s-1,.1-1.6.1-1.1.2-1.6-.4c-.1-.1-.4,0-.6,0,0,.8-.1,1.6-.1,2.4q-.9.4-1,1.1c.3,0,.6.1.9.1.7,1.3,1.5,2.6,2.2,3.9.1,0,.2,0,.2-.1.1-.4.1-.9.2-1.3,1-.3,1.1-.2,1.4.8.2.7.5,1.3.7,2,.4.3,1.1.4,1,1.2,0,.1.6.2.9.3.6.1,1.4-.1,1.5.8,1.4.2.7,1.5,1.1,2.4.6-.5,1.1-1,1.6-1.4,1.3.9,1.5,1.8,1.9,3.4.4-.2.8-.3,1.4-.6.2.4.5.8.8,1.3q-.1.1-.2.2h1.5c.2.7.3,1.4.5,2.2h2.4v2.3c1.2.4,1.6,1.4,1.6,3.2-.3,0-.6.1-1,.2v2.4c-1,.2-1.8.5-2.7.5s-.9-.3-1.4-.4c-.2-.1-.4-.1-.7-.1-1-.1-1.3-.4-1.4-1.4,0-.3,0-.7-.1-1.1-.2.1-.3.2-.5.2-.4.1-.9.3-1.3.2-.2-.1-.4-.6-.5-1s-.1-.9-.1-1.3h-.3c-.4.3-.7,1.1-1.3.7-.3-.2-.2-.9-.3-1.4-.1-.3-.1-.7-.2-1.2-1.1,1.2-1.9.2-2.8,0,0-.4-.1-.8-.1-1.3h-1.8c-.5-.7-.8-1.2-1.1-1.7-.1-.2-.3-.4-.2-.5.1-1-.5-1-1.2-.9-1.1.1-1.1,0-1.2-1-.1-.6-.4-1.2-.7-2-.7.1-1.5.3-2.4.5-.1-.4-.3-.9-.5-1.4-.1-.2-.2-.4-.3-.4-.2,0-.4.1-.6.2-.3.1-.7.4-.8.3-.9-.5-2.1-1-2.7-1.8-.4-.7-.9-.9-1.6-1.2v-3.2c-.4.2-.8.3-1.1.4-.6.2-1,.4-1.6-.1-1-.7-.9-1.6-.9-2.4-.5-.3-.8-.5-1.2-.6-.2-.1-.5.1-.6.3-.5.7-1,1.4-1.5,2.1-.1.2-.1.4-.2.6-.1.9-.4,1.8-.1,2.8.2.6-.1,1.4-.3,2.1-.2.6.1,1,.4,1.4.3.3.7.6,1,.9-.4.5-.8.9-1,1.4-.5.8,0,1.6.3,2.3.4.9.4,1.5-.3,2.2-.6.5-.6,1.4,0,1.9.8.7.8,2.3-.1,2.9-.2.1-.7.1-.8,0-.2-.3-.8-.7-.1-1.1-.9-.5-1.4-.1-1.5.7,0,.6,0,1.2-.2,1.7-.3.8-1.1,1.1-1.9,1.2-1.1.2-1.3.3-1.4,1.5,0,.4,0,.8-.2,1.1-.2.3-.7.6-.9.5-.4-.2-.8-.6-.9-1-.2-.6-.1-1.3-.1-2-2,.1-2.5-1.2-2.4-2.7-.7.2-1.3.3-1.9.4-.1-.1-.2-.2-.3-.3.3-.6.6-1.3.8-1.9.1-.1.3-.2.3-.3.2-1.5.4-3,.6-4.5.1-.3.2-.7.3-1.2-.3-.3-.6-.6.1-1.3.4-.3.1-1.4,0-2.1,0-.3-.4-.6-.7-.7s-.9-.1-1,.1c-.2.3,0,.8,0,1.3-.3.1-.6.1-1.1.2,0,.2-.1.5,0,.7.2.6-.1,1.1-.5,1.6-.2.3-.4.7-.4,1-.1,1.3,0,2.6,0,4.2-.6-.1-1-.2-1.6-.3-.5.4-.9,1.1-1,2,0,.1-.1.3-.2.4-.1-.1-.3-.2-.4-.3-.2-.2-.4-.5-.6-.7-.2.6-.3,1.1-.6,1.6-.3.4-.7.7-1,1.1s-.6.8-1,1.3c0-.3-.2-.6-.3-.9h-.8c0,.1,0,.2,0,.3-.2,1.1-.7,1.5-1.8.9-.6-.3-.8.2-1.1.3-.2.1-.4.3-.7.4-.8.2-1.5.3-2.3.5,0,0-.2.2-.3.3-.2.8-.9.9-1.5.7-.7-.2-1.2.2-1.3.7-.3,1.3-1.3.6-1.9.6-.8.1-.6-.6-.7-1.1,0,0,0-.1,0-.2,0,.1-.3.2-.4.4-.4.8-1.2.7-1.9.7s-1.2,0-1.5-.6-.8-.6-1.2-.5c-1.1.2-1.8-.7-2.8-.7s-.7-.3-1.1-.5c0,.5,0,.8-.2,1.1h-1.4c.2-.9.3-1.6.5-2.5-1.4-.3-1.9-1.4-2.4-2.4-.5-.8-.5-1.9-1.9-1.7,0,0-.2-.2-.2-.3s0-.3.2-.3c.4-.1.8-.1,1-.3,0-.3.2-.6.3-1,0-.7.2-1.4-.7-1.7-.3.5-.6.9-1.1,1.5-.4-.7-.7-1.3-1-1.9.9-.2.8-1,.8-1.7,0-1.5-.3-3.1-.3-4.6s.2-1.4.3-2.2c0-.2-.2-.5-.4-.7,0-.1-.4-.2-.5-.3-.8-1.2-.6-1.6,1.4-2-.2-.9-.4-1.8-.6-2.8q1.7-.2,1.7-1.9v-6.2q0-.1,0-.2c1.1.3.9-.9,1.2-1.1,0-1-.2-1.9-.4-2.8.4,0,.7-.1,1.1-.1,0-.3,0-.6.2-1,.7.2,1.4.4,2.1.6,0-.1,0-.2.2-.3,0-.4-.2-.7-.4-1.2.2-.1.5-.1.8-.2.6-2.2,1.1-4.5,1.7-7,.3.3.5.5.6.6.2.1.5.1.8.2,0,.6,0,1.2.2,1.9,1.1-1.6.2-3.1.5-4.6.4,0,.8-.1,1.3-.1,0-.5,0-.9,0-1.4h1.4c0,.3,0,.6.2.9.3,0,.5,0,.8.1,0-.1,0-.2,0-.3.2-.3.3-.6.6-.8.5-.3.7-.6,1-1,.4-.9,1.9-1,2.6-.3.5.5,1.1.6,1.8.6s1.3-.2,1.9.5c.3.3,1.1.5,1.5.3.9-.5,1.4-.1,1.9.4.3-.2.7-.5,1-.7v.3c.5.2.9.4,1.4.6.2.1.4.4.5.6,0,.4,0,.9,0,1.4,0,.2.2.5.4.5,0,.1.4-.1.6-.3.7-.8.9-.8,1.8-.5-.6,1.5-.4,2.9.6,4.3.1-.6.1-1.2.2-2,.6.4,1.2.8,1.9,1.3,0,0,.1.3.1.6.4.1.9.1,1.4.2v.3c-.3.1-.5.2-.8.2s-.8,0-1.2-.1c-.7-.1-1,.2-1,.9s-.2.9-.4,1.3c-.3.6,0,1.5.6,1.8.7.3.9.5.5,1.3-.2.3,0,.8.1,1.2-.4.3-.8.6-1.3.9v.3c.6.2,1.3.4,2,.6-.2,1-.5,2.4,1.2,2.6"/>
        <path d="M483.7,10.1c0-.1,0-.2,0-.3-1.1.3-2.2.7-3.3-.1,0-.3,0-.6,0-1-1.3,1.9-3.3,1.3-4.9,1.5-.3.6-.5,1.2-.9,1.5-.8.4-1.7.6-2.7.9,0-.3,0-.5,0-.7,0-.2-.3-.4-.5-.6,0,.2-.3.4-.3.6-.2.8-.4,1.6-.6,2.4,0,.1,0,.2-.2.3-.5.2-1,.4-1.6.7-.5,1.4-.8,1.6-1.4,1-.4.4-.9.7-1,1.1-.2.5,0,1.1,0,1.6v.7c0,.4-.2.7-.3,1,0,.4.3.9.3,1.3s-.3.8-.6,1.3c.6,0,1,.1,1.4.1,0,.2,0,.5.2.8.3-.1.6-.2.9-.3.7-.3,1.4-.1,1.8.4.2.3.2,1.2,0,1.4-.7.4-.3.9-.4,1.6.5-.1,1.2-.1,1.4-.4.6-.8,1.1-1.8,1.7-2.7,0-.1,0-.2,0-.3,0-.7,0-1.1.9-1.1h1.4c.5,0,.9-.1.9-.8s.4-.5.6-.7c0,.1.2.1.3.2v4.4c1.6-1.3,2-3.6,1-4.7.4-1.2,1.5-.5,2.4-.8v-1.1c0-.2,0-.6.2-.6.7,0,.7-.6.8-1.1.5,0,.9-.1,1.4-.1,0-1.5,1.3-.5,1.9-1,0-.3,0-.7,0-1.1,0-.2,0-.5.2-.7.5-.5.9-2.7.5-3.2,0-.1-.3-.2-.4-.3-.3-.3-.7-.7-1-1.1M434.3,19.4c-.4,0-.8-.1-1,.1-.7,1-.9-.1-1.3-.3-.1-.1-.1-.4-.1-.7-.1-.8-.8-1.2-1.3-.9-.8.4-1.8.6-2.1,1.7,0,.1-.2.1-.3.1,0-.5-.1-.9-.1-1.3-.9-.3-1.5-.1-1.6.9-.5,0-.9-.1-1.3,0s-.8.2-1,.5c-.3.4-.4.8-.7,1.4-.4-.6-.7-1.1-1-1.7-.2.3-.7.6-.6.9,0,.8-.4,1.3-.9,1.9-.5.5-.9,1.3-1.7.4-.1-.1-.5,0-.7,0,0,1.2-.1,1.2-1,1.9-.7.6-1.4,1.2-2,1.7.7.7.5,1.3-.5,1.5,0-.4-.1-.8-.2-1.3-.7,0-1.6-.3-1.8.7-.2,1.2-.1,1.5.9,1.8.1.5.2,1.1.4,2-.8-.2-1.3-.4-1.9-.5-.8.6-.9,2.2-.2,3.1-.7.5-.3,2-1.7,1.6v1.7c.5.2,1.1.2,1.3.5.9,1.1.7,1.9-.4,2.7-1.2.9-1.3,2.3-.3,3.2.4-.1.7-.1,1.3-.3-.2.6-.4,1-.5,1.4s0,.9,0,1.3c1.8.2,2,.4,2.5,2.4.6.2,1.3.6,2,.6,1.1.1,1.4.3,1.4,1.4s.1.6.1.9h.3c.1-.3.2-.5.3-.9h1.2c.2,0,.4-.2.6-.4.3-.4.4-.7.6-1.1.6.4,1.1.7,1.6.9.2.1.6-.1.7-.3.3-.5.7-.8,1.4-.6,0,.5.1,1.1,0,1.6-.1.7.5.8.7,1.2.3-.2.5-.4.8-.6.2-.1.3-.3.5-.4.4-.2.5-.5.2-.9s-.4-.8.1-1.1c.6-.4,1.3-.7,1.3-1.6l.2-.2c.7-.2,1.3-.5,2-.7.4-1.4.6-1.5,1.8-.9.5-.9.6-2.3,2.1-2.1v-1.7c0-.9.5-1.2,1.3-.9.3.1.7.2,1,.3.1-.1.2-.1.3-.2-.2-.6-.3-1.3-.5-1.9s-.6-1.3.2-1.8c.5-.3,1-.7,1.3-1.1.4-.5.6-1.1,1-1.6-.1-.4-.3-.9-.5-1.5-.2,0-.4,0-.8-.1.2-2,.5-3.8.7-5.8-.8-.5-.7,1-1.5,1-.2-.4-.6-.8-.6-1.1.1-.6.5-1.1.7-1.6s.3-.9.4-1.4c-.1,0-.2-.1-.3-.1-.2.1-.4.3-.6.4q-.8-.7-.8-1.7c0-.2.1-.4,0-.5-.2-.2-.4-.5-.6-.6s-.4,0-.7-.1c0-.2,0-.6,0-1.2M482.8,30.3v-1.4c-.8-.2-1.3.2-1.3.9s-.5,1.1-1.3,1-1.1.4-1.1,1c-.2,1.2-.5,1.5-1.5,1.4-.4-.4-.7-.8-1.1-.9-1.1-.2-1.2,0-1.3,1.4,0,.9-.4,1.2-1.2,1-.3-.1-.6-.5-.9-.4-.4,0-.7.3-1.1.4-.2.1-.6,0-.7-.2-.4-.7-.9-.4-1.5-.4v1.8c-1.3.2-1.4.1-1.1-1.1,0-.5.4-.9.5-1.4,0-.3,0-1,0-1-.5-.1-1.1-.2-1.6,0-.4.2-.7.6-.7,1.3s-.3,1.5-.5,2.3c-.2.6-1.6.8-2.2.5-.4-.2-.9-.4-1.3-.5-.3.6-.5,1-.7,1.5-.3.6.3.8.6,1,1,.5.9.8.5,1.7-.4.8-1.5,1.2-1.2,2.3.1.3.3.6.4.9.1.4.2,1,0,1.2-.6.6-.3,1.3-.4,2-.1.5-.3.9-.4,1.4,0,.2-.1.4,0,.6.1.6.3,1.1.4,1.7.1.3.3.7.3,1,.1.5.3,1.1.1,1.4-.1.3-.8.3-1.4.5,0,.5,0,1.1.1,1.6.4,1.1.1,2-1,2.6-.1,0-.1.1.1.2.1.6.2,1.2.4,1.8-.4.2-.6.3-1,.4-.1-.2-.2-.4-.2-.6,0-.8-.4-.8-.9-.7-.5.1-1,.4-1.5.6-.4.2-.8.3-1.2.5-.1-.1-.1-.2-.2-.2.1-.4.2-.8.4-1.3-.2,0-.4-.1-.7-.1-.7,0-1.4.3-1.7-.7h-.1c-2-.1-1.4-1.8-1.7-2.9-.2-.8,0-1.6.1-2.6-.3,0-.7-.1-1-.1-1.1-1.6-.4-3.4-.7-5.1-.1-.5-.2-.8-.7-.8-.8,0-1.1-.5-1.1-1.2s0-1-.1-1.5c-.3,0-.5,0-.7.1,0,.1.1.2.1.2-.2.2-.5.6-.7.5-1-.1-1,.4-1.1,1.1-.1.8-.6,1.6-1.1,2.3-.1.2-.7.1-1,.1-.8,0-1.3.3-1.4,1.1-.1.6-.3,1.1-1,1.3-.6.1-.9.7-.9,1.3,0,1.3-.4,1.7-1.7,1.8-.5.1-.8.3-.7.8.1.7-.3.9-.9.8-.9-.1-1.8-.2-2,1.1-.1.3-.8.6-1.2.9-.3-.8-.5-1.4-.8-1.9h-.4c-.2.5-.4,1-.4,1.5-.1.7-.4,1-1,1.2-.2,0-.4.2-.5.3-.3.1-.6.1-.9,0-.2,0-.3-.3-.5-.5l.5-.5c-1-.8-1.4.8-2.3.3,0,1-.6.9-1.2.9-.9-.1-1.8-.1-2.7-.2-.1.7-.7.9-1.4.7-.2-.1-.4-.3-.6-.4-.3-.2-.5-.5-.8-.5-.5-.1-1.1,0-1.2-.8,0-.1-.5-.2-.7-.2-.8.1-1.7.3-2.5.3s-.9-.1-1.1-.4c-.5-.5-1-.4-1.6-.4s-.7.1-.8-.4c0-.1-.2-.2-.3-.2-1.1-.3-1.3-1.3-1.6-2.5-.4.2-.7.4-1.1.4-.2.1-.5-.1-.7-.1s-.1-.1-.2-.1c-1.7-.5-1.9-2-2.1-3.4-.2-1.1-.3-2.3-.5-3.4-.1,0-.2-.1-.3-.1-.3.2-.7.4-.8.7-.2.6-.6.5-.9.4s-.6-.5-.6-.7c-.1-.9-.1-1.9-.1-2.8.1-1.1.1-2.1-1.1-2.8-.9-.5-.5-1.3-.3-2,.1-.4.3-.9.5-1.4h-1.5c0-1.2-.4-2.3.5-3.4-.6-.2-1.4-.2-1.1-1.2.2-.5.3-1,.7-1.3.7-.6.4-1.3.2-1.8-.5-1.1-.5-1.7.4-2.6s.7-.9.7-1.5.3-1.1.6-1.2c1-.3,1-1.2,1.4-2,1.3-.3.8.8,1.1,1.4h1.3c-.4-1.7.3-3.2,1.1-4.8-.8.1-1.3.2-1.9.3v-1.7c.6.2,1.1.3,1.7.4,0-.5.1-.7.1-1.1.3,0,.6-.1.9-.1.1-.2.1-.4.2-.7.5.6,1.1.7,1.8.2-.1-.1-.1-.3-.2-.4-.4-.4-.3-.7.2-1,.3-.2.6-.6.9-.9s.5-.7.8-1.3c.4.8.7,1.4,1.1,2.2.2-.9.4-1.7.7-2.7.7.2,1.4.4,2.2.5.1-.1.1-.3.2-.5.4-.7.6-1.6,1.8-.9.7.4,1.6.4,2.4.5.2,0,.4-.2.6-.4.4-.5.9-.9,1.3-1.4.2.1.6.3,1,.6,0,.2.1.5.2.8h.2c.1-.3.2-.6.3-.9,1.3.4,2.5,1.5,4,.6.8.3,1.6.6,2.5,1,.1-.4.2-.7.4-1.2.4.5.6,1,.9,1.1.9.3,1.3.9,1.5,1.8.1.3.8.4,1.3.7.1-.5.1-.8.2-1.1,1.2-.2,1.3-.1,1.4,1,.1.6.3,1.3.6,1.9.1.1.5.3.6.2.3-.2.5-.4.7-.7s.1-.6.1-1h.2c.3.3.6.7,1,1.1l-.2.2c.2.1.5.2.8.3,0,.6,0,1.1-.1,1.7s-.3,1.2-.5,1.8c.7.2,1.1.1,1.1-.5v-.2c.8-.3.9-1,1.3-1.6.1-.1.2-.2.5-.3.1.6.2,1.2.1,1.8,0,.8.4,1.2,1,1.6.2.1.4.3.4.5.2,1.1.2,2.1.4,3.2.1.4.5.8.8,1.2.2-.4.5-.8.7-1.2v-.3c.6-.2.9,0,.9.6s-.1,1.1,0,1.6c.1.7.2,1.4.6,2,.7.9-.2,1.5-.3,2.2-.1.3-.3.6-.3.8,0,1.1,0,2.2.1,3.3,0,.3.3.8.5.8.3,0,.7-.2,1-.4.6-.5.6-1.2.5-2s.1-1.4.6-2.1c.4-.6.3-1.5.4-2.2,0-.9,0-1.8-.1-2.7-.2-1.4.7-2.4,1.1-3.5.2-.5.4-1.1.4-1.7.1-.6,0-1.3,0-1.8.7-.3,1.3-.5,1.8-.9.2-.1.2-.6.3-1,.1-.5.2-1,.4-1.5.1-.2.5-.3.8-.4.4-.2.8-.2,1.1-.5.5-.6,1-1.2,1.4-1.9.2-.3.2-.8.1-1.2-.4-1.3-.6-2-.4-3.1.5-.2,1.4.3,1.6-.6.1-.6-.1-1.2-.2-1.9.4,0,.8.1,1,0,.4-.2.8-.5,1-.9s0-.9,0-1.3c0-1.1.1-1.2,1.4-1.2v1.9c1.3.7,1.7-.5,2.4-1,.6-.5,1.1-1.1,1.7-1.6,0-.1.5,0,.7.2.4.2.8.5,1.2.7,0-.1,0-.2.2-.2,0-.2,0-.3-.2-.5,1.1-.5,2.2-1.1,3.1-2.1h2.2c-1,.8.3,1.2,0,1.8.9-.5,1.7-.9,2.6-1.4,0,.3.2.6.2.9,1,.3,1.5-.2,2-1,0-.2.5-.3.7-.4.2,1.5.4,2.9.5,4.3.9,0,1.5-.8,1.5-1.7-.2,0-.5-.1-.7-.1V.2h1.2c0,.5,0,.9.3,1.3.3.6.9.5,1.5.5s.6.2,1.1.3c.3-.1.8-.2,1.3-.2.9.1,1.5-.3,2-.9.9.8.9,1,0,1.7.8-.1,1.4-.1,2.1-.2,0,.5,0,1,0,1.6,0,0,0,.1.2.1,1.9-.1,1.7,0,1.7,1.8v1.1c1.2.3,1.2-.8,1.6-1.3.4.2.8.3,1.3.5-.2,1.3.5,1.9,2.1,1.7-.2.7-.5,1.2-.5,1.8,0,.9-.5,1.5-1.2,1.9,0,0,0,.1,0,.2,0,.9-.3,1.7-1.1,2.2,0,0,0,.3,0,.4.2.4.4.9.7,1.4.5-.8.8-2,2.1-1.3,0,1.7-1.2,2.9-1.7,4.5h-1.1c-.3.8-.5,1.6-.7,2.2-.6.4-1.1.7-1.5,1.1-.6.4-1.2.4-1.6-.3-.2.3-.5.6-.7.9,0,.1,0,.3,0,.4,1.1,1.3,0,1.9-.7,2.5-.4-.1-.8-.3-1-.3-.3.5-.5,1.2-.8,1.3-.9.2-.3-.9-.9-1.3-.3.6-.6,1.1-.7,1.6,0,1.1-.8,1.9-1.4,2.7-.4.2-.9,0-1.4.2"/>
        <path d="M147.8,56.6c.2.6.4,1.2.5,1.8.1.5.1,1-.1,1.4-.4.7-.3,1.3.3,2-.8.5-1.5,1.2-2.4,1.5s-1.9.4-2.4-.8c-.3.4-.6.6-.7.9-.3.9-1,.4-1.5.4s-.9-.3-1.3-.5c-.3-.2-.7-.5-.8-.8-.2-.6-.6-.5-1-.3-1.3.7-1.7.4-2.2-.9-.5-1.2-.5-2.4-.5-3.7s.1-.4.2-.6c.3.2.6.4.8.6.1.1-.1.3-.1.5-.1.2-.3.4-.5.8.7,0,1.1-.1,1.5-.1.7-1.7-.5-3.2-.3-4.9.3-.1.6-.1.8-.3.1-.1,0-.5,0-.8h-.1c0-1.2-1.4-1.7-1.3-3,.1-.5-.1-1,0-1.6,0-.3.1-.6.3-.7.4-.4.3-.8-.1-1.1-.7-.5-.8-.6-.6-1.5.6.1,1.2.3,1.6.4.3-.5.6-.8.7-1.2.1-.2,0-.6-.1-.8-.4-.4-.3-.7,0-1.1.3-.3.5-.8-.1-1.1-.7-.3-.8-.9-.7-1.6v-2c.3,0,.6.1.8,0,.4-.1,1-.2,1.1-.4.2-.4,0-.9,0-1.4s-.1-.3-.2-.3c-.2-.1-.5-.3-.7-.3s-.4.4-.3.5c.1.7-.1,1.2-.9,1.5-.4-.6-.7-1.2-1.1-1.8.7-.6.4-2.1,1.9-1.9,0-.8.1-1.6,1-2,.1-.1,0-.7-.2-1.1.1-.7.2-1.3.2-2s-.1-.4-.2-.4c-.8-.4-1-1-.8-2-.6.1-1,.2-1.6.3.1-.2.2-.5.3-.8.1-.9.4-1.9,0-2.5-.5-1-.3-2-.1-2.9,0-.4.4-.7.6-1,.2.2.5.3.7.5.1.1.1.3,0,.5-.6,1-.6,1.3.4,2.2.9-1.2,1.8-2.4,1.7-4.1-.1-1.1.3-2.2.5-3.3,0-.1.1-.2.1-.2.7-.5.4-.9-.1-1.2.8-.9,1.5-1.7,2.3-2.5q-.1-.1-.2-.2h1.4c.4,1-.5,2.3.7,3.1,1-.6,1.1-.9.4-1.5.6-.7,1.2,0,1.3.3.5,1.2,1.5,1,2.4,1h.8c.2.7-.3,1.7,1,1.6-.1.5-.2.9-.4,1.4.7.5,1.1,1.4.6,2.3-.4.6-.4,1.1-.3,1.7.1.7.4,1.4.6,2h.2v-2.3h1.2v1.1c.1.5.3,1,.3,1.5s-.1.9-.2,1.3c-.2.5-.4,1.1.2,1.5.1.1.2.2.2.3.2.8.4,1.7.6,2.5.1.1.2.1.2.1,1.5.1,1.2,0,1.3,1.4.1.7.1,1.3.1,2s-.1.6-.3.7c-.7.6-.4,1.3-.3,2.1.9-.7,1.8-.7,2.6,0,.1.1.2.2.2.4,0,.5,0,1.1.1,1.6s.3.9.5,1.5c.2,0,.5.1.6.1.4.5.7.8.9,1.2.2.3.4.6.4.9,0,1.1-.1,2.1.8,3,.2.2-.1.9-.2,1.3-.1.3-.1.6-.2.9,1.4.2,1.9-.2,2-1.6,0-.5.1-.8.7-.9.2,0,.4-.5.4-.7.2-1.2.3-2.5.5-3.7.3,0,.6-.1.9-.1h-.1c.3-.5.7-.9,1-1.3.1-.2.2-.7,0-.9-.6-.6-.4-.9.2-1.2s.4-.4.4-.6c.1-.5,0-1,0-1.6s0-1.1.8-1.4c.2-.1.2-.6.3-.9.1-.6.2-1.2.3-2-.5-.5-.5-.9.4-1.2.5-.2.9-.5.9-1.1s.2-.5.2-.7c.1-.3.3-.8.2-1-1-1.5.6-2.1,1-3,.1-.3.4-.5.4-.8.1-.7,0-1.5.1-2.2.1-1,.3-2,.5-2.9.1-.3.6-.5.9-.6.4-.1.6-.3.6-.8.2-1.8.4-3.7.6-5.5.1-.6,0-1.2,0-1.8.5-.1,1-.3,1.6-.4.2,0,.5.2.7.5.1.2.1.5.2.9.5-.2.9-.3,1.4-.5.3,1.4,1,2.3,2.7,2.1v.2c-.4.1-.6.3-.9.4v1.3c-.5,0-1,.1-1.3.1.1.8.2,1.5.2,2.3h2.2c.3-.7.6-1.3.9-1.9.4.6.9,1.1,1.3,1.7.1.2,0,.6-.1.8-.1.4-.4.9-.6,1.4,1.2,0,1.3.7,1.3,1.4v1.3c0,.8.3,1.1,1.1.9.4-.1.8-.2,1.3-.3.2.2.8.5.5,1.2-.2.4-.4.7-.7,1.2,0,0-.3.1-.6.1,0,.5.1.9,0,1.4-.1.4-.3.8-.4,1.1-.1.2-.2.5-.1.7.7,1.5.6,1.7-1.1,1.7,0-.3-.1-.6-.2-1h-.6c-.3.7-.6,1.2-.8,1.8-.1.3,0,.7.1.9.6.9.4,2,.3,2.9-.1.5-.4,1-1.1,1s-.5.2-.7.4c-.4.7-.8,1.3-1.1,2.1-.2.5,0,1,0,1.5s.1,1.2-.8,1.5c-.4.1-.5.9-.7,1.4-.1.3-.1.6,0,.9.1,1.1-.3,2-1,2.8-.4.4-.7,1-.9,1.6-.2.8-.8.8-1.5.9,0,.3-.1.6,0,.9.1.7,0,1.2-.8,1.2s-.5.5-.7.8c-.3.4-.4.9-.7,1.4-.2.4-.4.7-.6,1.2h-.3c-.5.1-1.3.2-1.3.4-.1.7-.5,1.5.4,2.1.4.3.6.8.9,1.3-.4.6-.9,1.2-1.2,1.8-.3.7-.5,1.5-.8,2.3-.4-.1-.8-.2-1.3-.3v3.4c-.6.1-1.1.1-1.6.1.1,1.3-1.2,1.2-1.8,1.8-.4.4-.9.6-1.4.9-.3.2-.5.3-1-.1-.9-.7-1.1-1.4-1-2.4,0-.2-.1-.4-.1-.7-.9.9-1.6.6-2.3-.3-.4-.5-.8-.9-1.5-.8-.2,0-.5-.2-.7-.4-.3-.2-.5-.5-.8-.7-.2-.2-.5-.4-.5-.6-.1-1-.2-2-.5-3s-.5-2.1-1-3.1,0-.4-.1-.6c-.3-.5-.4-1.1-1.2-1.2-.8,0-1.1-.8-.6-1.5.2-.2.2-.7.1-.9-.2-.2-.7-.4-.9.2,0,.1-.2.1-.4.1-1.1.2-1.4.9-.7,1.8-.3.3-.5.6-.8.9.9.9.3,2,.4,3,.4,1-.2,1.6-1.8,2.1"/>
        <path d="M215.2,9.5c.7.3,1.1,1.4,2.2.9-.1-.2-.2-.5-.3-.7.8-.2,1.6-.6,2.4-.6,1,.1,1.9.4,2.8.8s1.6.1,1.8-.8c.2-.5.7-.8,1.1-1.2.1-.1.3,0,.3-.1.6-.7,1.1-.4,1.4.3.1.1.1.3.2.4.3-.3.5-.4.7-.6.3.5.6.9,1,1.4.1-.1.2-.2.3-.2.4-.1.9-.2,1.2-.1.1,0,.2.6.2.9s.1.7.1,1.3c.7-.2,1.2-.4,1.8-.6.1.4.1.8.2,1,.6.2,1.2.2,1.3.5.2.4.5,1-.2,1.4-.1.1-.2.6-.1.8.2.5.6,1,.8,1.5q0,.1-.1.1c-.8.2-1.5.5-2.1,1.1s-.7.1-1.1.1c-.6,0-1,0-1.2.7-.4,1.2-2.2,1.4-3,.4-.4-.4-1.4-.4-1.8.2-.6.8-1,1.2-2.1.7-1-.4-2.3-.1-3.5-.1,0,.8-.5,1-1.2,1.1-.5.1-1,.7-1.4,1.1-.7.6-1.1.6-1.6-.1-.5.4-.9.8-1.4,1.1-.6.3-1.3.6-1.7-.4-.1-.2-.7-.3-1.2-.4-.1.8-.1,1.3-.2,2h-5.4c0,.4-.1.7-.1,1.1h-2.3c-1,0-1.3.4-1.3,1.3v4.7c0,.3.1.6-.1.8-.9.8-.7,2.1-1.3,3.1,1.2.5,2.3.1,3.4-.5v2.2c1.2.3,2.5-.6,2.6-1.7,0-.3.2-.5.3-.8.2.1.4.4.6.4.4.1.9.1,1.4.1.1-.4.1-.7.1-1,1-.2,1.3.1,1.6,1,.1.5.4.9.9,1.5.2-.6.4-1.2.7-2,1,0,2.1-.1,3.2,0,.3,0,.6.6.8.8,1.7-.4,3.3-.7,5-1,.1.5.1.7.2,1.1h2.9v2.1c.6.1.9.1,1.1-.5s.6-1.1,1.6-.9c-.2.8-.3,1.6-.7,2.3-.4.7-1.1,1.1-2,1.2-.5.1-1,.8-1.5,1.2-.7.8-2.1,1-2.7.3-.2-.3-.3-.7-.4-1-.3.4-.6.8-1,1s-.9.1-1.3.1c.1.5.4.9.2,1.1-.2.3-.7.4-1,.4-.6,0-1.1.1-1.7-.4-.3-.2-1,0-1.5.1-.4.1-.7.3-1,.4-.3-.7-.5-1.2-.7-1.8-.1,0-.2.1-.3.1v2c-1.1,0-1.4-.3-1.6-1.5-.2,0-.3-.1-.5-.1s-.3,0-.5.1c-.2,1.3-.9,1.9-2.2,2-.5,0-1.1.3-1.6.4-1.2.1-2.3-.9-2.4-2.2,0-.6-.2-.8-.9-.7v2.7c-1.3.7-1.8-.3-2.3-.8.1-.5.2-1,.2-1.5s-.3-.4-.4-.4c-.2,0-.5.2-.5.4,0,.7-.2,1.1-1,1.2-.4.1-.8.7-.9,1.1-.2.7-.5,1.2-1.1,1.4-.7.2-1,.8-1.4,1.3-.7.9-.8,1.9-.7,3,.2,0,.4,0,.6.1.3.2.7.4,1,.5-.1.2-.4.4-.4.6-.1.5-.1.9-.1,1.4.1.1.2.1.3.2.4-.3.8-.6,1.2-.9.1-.1.3-.3.4-.3.8.2,1.6.5,2.4,1h.2c.6-1,1.5-1,2.5-1,2,0,3.9,0,5.9-.1.6,0,1.2-.3,1.7-.6.7-.4,1.2-.7,1.8.1.2.2.8,0,1.2,0,.5-.1.9-.3,1.4-.5.1.6.2,1.1.3,1.5,1.2-.5,2.9-.3,2.5-2.4.5,0,.9-.1,1.4-.1v2.2c1.4-.3,1.7.4,1.6,1.6,0,.1.3.4.4.5.3.1.6,0,.9,0,.9,0,1.2.4,1.3,1.3v1.7c0,.4-.2.8-.3,1.3.9.5,1,1.2,0,1.9-.7-.4-1.3-.8-1.9-1.2-.7-.4-1.4,0-1.4.8v1h-1.1v-.6c-.1-.3-.3-.8-.4-.8-.3,0-.7.2-1,.4-.4.2-.7.5-1,.8-.7.5-2.6.3-3.1-.2-.6.3-1.2.7-1.8.8-.6.1-1.3,0-2-.1v-.3c-.3.3-.5.6-.9,1-.1-.1-.6-.2-.5-.3,0-.3.2-.5.4-.7.3-.3.6-.5.8-.8v-.3c-.4,0-.8,0-1.2-.1s-.9-.1-1.1-.4c-.5-.6-1.1-.5-1.5-.3-.5.3-.9,1-1.4,1.5q.1.1.2.2c-.3,0-.6.1-.7,0-.8-1-1.1-.1-1.6.3-.1.1-.3.2-.4.2-.1-.2-.2-.3-.2-.5.1-.9.1-1.6-1.2-1.5-.5,0-1-.4-1.5-.4s-.6.3-.8.6c-.3.5-.5,1.1-.7,1.7-.5-.2-1.1-.3-1.6-.5-.6,1.6-.7,1.7-2.4,1.7s-1.5,0-2.3-.1c-.6-.1-1.1-.3-1.5-.4.2-.8.3-1.4.4-2.1-.4,0-.7-.1-1-.1-.1.4-.2.7-.3,1.1-.4-.4-.8-.7-1.2-1.1-.6-.6-1.1-.2-1.6.2-.5.5-.6,1.2-.3,1.8.1.3.3.6.3,1.1-.8-.5-1.3-1.5-2.4-.9-.2-.4-.4-.7-.4-1-.1-.4-.4-.6-.8-.6s-.7-.2-.7-.4c-.1-.5-.2-1.2.1-1.5.6-.6.3-1.2.2-1.7,0-.2-.7-.3-1.1-.4-.2-.1-.5,0-.8-.1-.5-.9.3-1.5.5-2.2.2-.6.6-1.2.9-1.8s.6-.6,1-.2c.2.2.4.4.8.7,0-1.3.1-2.4,0-3.5-.2-1.5.4-2.5,1.8-3.2.5-.2.8-.8,1.3-1.2-1.4-.8-1.7-1.5-1.3-3.2h1.4c0,.7.1,1.3.1,1.9.8.2,1.4-.3,1.4-1.2v-3.4c.6,0,1.2.2,1.6-.1.3-.2.3-.8.5-1.3h.4c.9,0,1.4-.8,1-1.6-.1-.1-.2-.3-.3-.3q-.7-.3-.7-1.1c1-.1,1.4-.8,1.6-1.7.1-.5.3-1,.6-1.4.1-.2.4-.3.7-.4s.7,0,1.1,0v-2c-1.4-.2-1.4-.3-1.2-1.5,1.2.4,1.7-.8,2.4-1.3.2-.2.4-.9.3-1.1-.7-1.1-.6-2.4-.3-3.3.3-.8.3-2.1,1.5-2.6.3-.1.5-.6.5-1,.1-1,1.3-2,2.4-1.8.3.1.5.3.6.6.3.7.4,1.5.7,2.3.6-.3.9-.7.9-1.4-.1-.7-.2-1.4.5-1.9.1-.1.3-.1.6-.2,0,.5,0,.8.1,1.1.1.2.3.4.5.4.6-.1,1.5-1.3,1.3-2-.1-.3-.2-.5-.4-.9.3-.2.7-.6,1-.6,1.4-.1,1.5,0,1.5,1.4v1.7c.1,0,.2.1.3.1.5-.8,1-1.6,1.5-2.4,0-.1-.1-.2-.1-.3.5.1,1.1.3,1.8.4,0-.2,0-.5-.1-.7-.3-.9-.1-1.1.8-1.1h.8c0,.4.1.8.1,1.2q1.1.3,1.6-2,.8.4.8,1.3c0,.5.1.8.6.8s.7-.2.9-.7c0-.4.3-1.2.8-2.2"/>
        <path d="M252.7,34.7h.7c.7,0,1.3.1,1.6-.8.3-.9,1.1-1.3,2-1.2.2,0,.5.2.5.3-.1.6-.2,1.1-.3,1.7-.1.3-.1.6-.2.9.4.1.7.2,1.1.2s.6-.3.7-.5c.2-.7.4-1.4.6-2s.3-1.2.6-1.8c.4-.7,1.9-.8,2.6-.3.2.1.6.1.6,0,.3-.4.5-.8.9-1.4.3,0,.7,0,1.1-.1.3-.1.5-.2.8-.4.9-.6.4-1.5.5-2.3.1-.9-.9-1.7-1.8-1.8-.3,0-.6-.1-.8-.3-.3-.5-.8-.7-1.3-.7s-1.4.1-1.9-.2c-.5-.4-1-.3-1.5-.3s-.7-.3-1.1-.4-.8-.2-1.1-.1c-.5.2-.9.6-1.4.9-.2-.1-.4-.3-.5-.3-.4.5-.8.9-1.1,1.3-.3.5-.5,1-.8,1.6-.4.8-.6,1.7-1.1,2.4-.5.6-.5,1.3-.2,1.6.7.8.3,1.7.4,2.5,0,.1-.2.4-.4.5-.5.3-.9,1.2-.5,1.6.2.3.7.4,1.2.6,0-.6,0-.9,0-1.2M249.8,56c-.2.8.2,1.2.9,1.4.5.1.7.4.3.8-.1.1-.2.1-.2.2,0,1.2-.5,2.3-.5,3.4-.1,1.1-.4,1.9-1.2,2.5-.8.5-1.8.9-2.7,1.2-1,.3-1.8-.3-2.5-1s-.2-.1-.2-.2c-.2-.8-.4-1.7-.6-2.5-.2-.7-.3-1.5-.6-2.2-.1-.2-.5-.2-.8-.4v-1.6c0-.2.1-.5.2-.6.7-.6.8-1.1.1-1.5-.5-.3-.5-.6-.4-1.1.1-.7.3-1.3-.4-1.9-.1-.1,0-.5-.1-.7-.1-.6-.3-1.2-.4-1.8,0-.4.2-.9.4-1.1.3-.2.8-.1,1.2-.1.2-1,.4-2.2.6-3.4-.7-.1-1.2-.5-1.3-1.4,0-.1-.3-.3-.3-.4-.1-.4-.1-.8-.1-1.2.1-.4.3-.7.4-1.1s0-.8,0-1.2c0-.6.1-1.1.3-1.7.3-.8,0-1.8-.1-2.8,0-.3,0-.7.1-1,.1-.6.3-1.1.5-1.6.1-.3.3-.7.6-.8.6-.3,1-.6,1-1.3s.3-.6.5-.8c.6-.3.9-.7.9-1.3.1-1,.3-2,.6-3,.1-.3.4-.5.7-.7.6-.4.7-.9.6-1.6,0-.3.2-.7.4-1.1.2-.4.5-.8.7-1.2.3-.9.4-1.7.6-2.7.8-.2,1.7-.2,2.5-.6s1.5.1,2.3,0c.3-.6.6-1.2,1-2,.5,2,1.6.8,2.5.7.3,1.6.6,1.9,1.5,1.8.3-.5.5-1.1.9-1.9.3.5.8.9.8,1.3.2,1.3.7,1.8,2.1,1.7h.3c0,.3.1.6.2.9.2,0,.5.1.6,0,.7-.7,1.6-.4,2.5-.5.8-.1,1.3.4,1.4,1.2.2,1.1.3,1.2,1.5,1,.3-.1.6-.1.9-.1.2.6.5,1.2.6,1.8.2.8.7,1.1,1.4,1.1s1.2.5,1.2,1.2-.2,1.1.3,1.6,0,.4-.1.6c-.2.3-.5.5-.8.9.6.1,1,.2,1.5.3.1,1-.3,1.5-1.1,1.5s-.8.6-.8,1.1-.2.8-.7.8c-.9,0-1.2.4-1.2,1.3s.2,1.4-.8,1.6c-1.2-.7-1.7-.5-2.2.8-.2.5-.5.9-1.2.8-.5-.1-.8,0-1.1.5-.4.5-.8,1.1-1.3,1.4-.3.2-1,.2-1.4.1-1.1-.5-1.7-.6-2.4.2-.5.5-.9,1.1-1.2,1.8-.2.4.1.7.7.8,1.3.1,2.3.7,3,1.9.3.5,1.1.9,1.7,1s.9.5,1,1c.2.5.5.7,1,.6,1.1-.1,2,.4,2.6,1.2.1.1.3.2.4.2,1.1-.1,1.9.5,2.6,1.2s.2.3.3.3c1.2-.2,1.7.7,2.3,1.5.1.1.4.1.6.2.4.2,1.1.3,1.2.6.3.8.8.7,1.4.7s.8.3.8.8.2.7.4.7c.2.1.6-.2.9-.3.2.1.5.3.9.3,1.2.3,2.5.4,3.2,1.8.5,1.2,1.5,1.5,2.7,1.3h.5c.3.8.5,1.5.8,2.4.3.2,1.4-.2,1.1,1.1-.8.1-1.2.5-1.5,1.3-.2.5-1.2.8-1.8,1.1-.6.3-1.2.6-1.8.9-.1,0-.3.1-.3.1-.3-.3-.6-.8-1-.9-.7-.2-.5-.7-.6-1.1,0-.1,0-.2-.1-.4-.4.2-.8.4-1.2.5-.2-.2-.6-.3-.7-.6-.3-.7-.7-.3-1.1-.2-.4.1-.8.4-1.3.6-.1-.1-.2-.1-.3-.2.1-1.1.2-2.2.4-3.3-.1,0-.2-.1-.2-.1-.2.4-.3.8-.6,1.1s-.6.7-.9.7c-.5.1-1.2,0-1.6-.2-1.2-.7-1.1-1.9-1.1-3.1s0-1.2-.8-1.6c-.1.5-.1.9-.2,1.5-.6,0-1.2.1-1.9.1.1-.8-.2-1.5.4-2.2.3-.4.2-1-.5-1s-1.1-.3-1.6.4c-.2.3-.8.1-.8-.5-.1-.5,0-.9-.7-1.1-.2,0-.2-.8-.3-1.2-.8-.2-.9.4-.9,1-.5,0-.8.2-1.2-.4-.5-.7-1.3-1.1-2.1-1.6-.2-.1-.5.1-.8.2s-.6.3-.9.4c-.3-1-.6-1.8-.8-2.5-.8.1-1.5.3-2.3.4,0-.1-.1-.2-.1-.3.1-.1.1-.3.2-.4.4-.5.2-1-.3-1.4-.4-.3-.7-.8-1.1-1.2l.2-.2h-.9c0,.6-.1,1.3-.1,1.9-.9.2-1.8-.1-2-.7-.2-.7-.5-1.4-.7-2-.7-.6-1.4-1.2-2.2-2-.1.4-.1.7-.1,1v3.9c0,.5.4.9.4,1.4.1.7.1,1.4-.1,2-.3.6-.4,1,0,1.7.3.4.2,1.1.2,1.7.2,1.3,0,1.5-1.3,1.8"/>
        <path d="M8,29.7c1.2-.4,1.9-1.3,2.2-2.5,0-.5.5-1,1.2-1s.5,0,.8-.1v-2.6c.6.2,1.1.3,1.9.5,0-.4.5-.9.5-1.5.2-1.1,1.1-1.6,1.7-2.3,0,0,.3.1.4.2.3.4.8.3,1-.1.2-.5.4-1.1.5-1.6.4-.1,1-.1,1.4-.4.7-.4.5-1.1.5-1.7s.3-1.1,1-1.1.6-.2.9-.3c0,.1.4.2.5.4,0,.3,0,.7,0,1s0,.3-.2.5c.2.1.5.3.6.2.3-.2.8-.7.7-.9-.3-.8.4-1.3.7-1.8.4-.6.7-1.6,1.9-1.2,0,.2,0,.5,0,.9.3,0,.6.1.9.1,0-.3,0-.6.2-1,.8,0,1.6-.1,1.9-1.1,0-.1.6-.1.8,0,.4.2.7.4,1,.7.7.5,1.3.4,1.7-.3.3-.6,1-.8,1.5-.9.4-.1.8.2,1.4.4,0,0,0-.2.3-.2.2-.1.5,0,.7,0,0,.3,0,.6,0,.9s-.2.6-.4.8c1.3.5,1.6.3,2.1-.8.7.1,1.1-.2,1.5-.8.4-.7,1.7-.8,2.3-.2.4.5.7,1,1.3.1,0-.2.8.1,1.3.2,0-.3,0-.7.2-1.3.9.5,1.7,1,2.6,1.5-.6.8-.8,1.3-.2,2.2.5.7.4,1.7.6,2.6-1.4.4-1.9.2-2.2-.7,0,.1-.3.1-.4.2-.4.7-1.1.8-1.6.3-.2-.1-.5-.4-.5-.3-.3.2-.6.4-.8.7-.2.3-.4.7-.6,1.1,0,0-.2,0-.4-.1,0-.7,0-1.5-.2-2.4-.7.3-1.4.4-2,.7-.7.5-1.5.8-2.3.7-.3,0-.5.2-.8.2-.3.1-.8.3-1,.2-.7-.7-1.6-.2-2.4-.4-.3-.1-.6-.2-1-.3,0,.4,0,.8-.2,1.3-.6,0-1.2.1-1.9.1,0,.1,0,.3,0,.4-.2,1.3-.3,2.6-.5,3.9,0,.6-.5.8-1,.4s-1-.3-1.5.1c-.5.3-1.1.3-1.2,1,0,.1-.5.2-.7.2h-1c-.3.7-.6,1.4-.9,2-.4,0-.8.1-1.2.1v.8c0,.7,0,1.1-.9,1.1s-.6.4-.9.7c0,.1,0,.1,0,.2-.5,0-.9.1-1.4.1,0,.3,0,.7,0,1,0,.5-.4.9-.9,1.2-.8.5-1.4,1.3-2,2-.3.3-.7.6-1,.9-.4.6-.8,1.1-1.1,1.8-.4.8-.7,1.6-1,2.4,0,.1,0,.4,0,.4,1,1-.3,1.9,0,2.9,0,.6-.3,1.2-.6,1.9-.4.1-.9.2-1.4.5-.2.1-.4.6-.3.8.2.5.7,1,.8,1.5,0,.6,0,1.2,0,1.8s-.2.2-.2.3c-1,1.1-.2,2.3,0,3.2,0,.6.5,1.2.4,1.8,0,.3-.2.6-.4,1.1.4.3.8.7,1.3,1.2.2.2.5.5.5.6-.2,1.2.8,1.6,1.4,2.2.4.4.6.9,1,1.6-.2-.1,0,0,0,0,1-.2,1.3.6,1.9,1.2.2.2.4.4.7.4h4.8c.3,0,.6-.3,1-.7.3.4.5.7.8,1.2.4-.4.8-.8,1.2-1.3.4-.4,1.8-.5,2.1-.1.4.5.6.3.8-.1.3-.7.5-1.4.8-2.2h1.3c0,.3,0,.7,0,1,1.3.1,1.5,0,1.5-1s0-1.4,1.5-1.4h.4c0-.6,0-1.3,0-1.9,1.4-.6,1.8-.3,2.1,1.3.8.1,1.4-.3,1.4-1.1v-2.8c0-.2.2-.4.3-.7.2.2.5.4.5.6,0,.7.2,1.2.9,1.5,0,0,.2.3.2.4,0,1,.3,2,.4,3.1.5,0,.8,0,1.1.1,0-.3,0-.5,0-.6.3-.3.7-.5,1-.7.2.3.5.6.5.9,0,1.4-.3,2.7-.5,3.7-.8.6-1.3,1.1-1.8,1.5-.8.6-1.6,1.2-2.3,1.9-.2.1-.3.6-.3.7.8.8.2,1.8.4,2.7-.9.2-1.7.5-2.4.7-.3-.5-.6-1-.9-1.4-.6-.1-1.6.3-1.4-1-.5-.2-.8-.1-.9.4s-.3,1-.6,1.5c0,.2-.4.4-.6.4-1.6.2-3.1.4-4.6.6-.2.4-.5.7-.7,1.1-.3.8-.7.4-1.1.2-.3-.1-.7-.1-1-.1s-.5.3-.8.4c-.3-1.2-.3-1.1-1.3-.7-.8.3-1.6.4-2.4.6-.3.1-.6.2-1,.4-.2-.3-.6-.6-.9-1-.4-.6-.7-.4-1.1,0l-.2.2c-.6.6-1.2.4-1.4-.4,0-.6-.5-.6-.9-.6h-2.5c0-.7,0-1.3-.2-1.9-.4.2-.6.4-.9.5-.6.2-1.2.5-1.2-.6s-.5-.4-.9-.7v-1.9c-.5.2-.9.4-1.3.5-.3-.7.2-2.1-1.3-2-.4,0-.8.4-1.1.7,0,.1,0,.2,0,.4h-1.9c-.4,0-.7-.2-1.1-.5C0,63,0,61.8,0,60.5c0-.3,0-.5,0-.8,1-.5,1.4-.3,1.9.6.2.5.8.8,1.3,1.2,0,.1.3.1.5.2s.4.2.6.3c0-.3,0-.6,0-.9s-.3-.6-.3-.9c0-.7,0-1.3,0-2s0-.8-.4-1.2c-.4-.3-.3-1.3-.3-2s.4-1.4-.2-2.1c-.4-.5,0-2.7,0-3,0-.5.2-.8,0-1,0-.4-.3-.8-.6-1-.6-.5-.4-.8,0-1.4.3-.7.9-1.2.9-2.1s.3-2.1.5-3.1h0c1.1-.8.7-2,1-2.9.4-.9.4-1.9.5-2.8,0-.2.2-.3.3-.5.2-.5.4-.9.7-1.4,0-.2.4-.4.6-.6.8-.9,1.1-2,1-3.4"/>
        <path d="M492.2,42.3c.6.7,1.1,1.3,1.6,1.9.3-.3.5-.6.8-.9.4-.3,1.3.1,1.4.7,0,1.1.3,2,1,2.8,0,.1,0,.3,0,.4-.8.5-.4,1.3-.2,1.8.3.8.6,1.4-.2,2.2-.5.5-.8,1.2-1.2,1.8,0,.2-.5.2-.7.4-.4.3-.8.7-1.1,1.1s-.5.8-.8,1.2c0,.1-.2.2-.3.4-.4,1.3-1,1.5-2.2.9,0-.1-.3-.1-.5-.2,0,.3-.2.6-.2.8h0c-.4.2-.7.6-1.2,1-.2-.1-.6-.2-1-.4,0,.7,0,1.3-.9,1.1-.4-1.1-.5-1.5-1.8-1.6-.3-.5-.5-.9-.8-1.3,0,.1,0,.2,0,.3-.4.1-.9.2-1.3.1-.2-.1-.4-.6-.4-1,0-1.3-.7-2.3-1.4-3.3-.6-.8-.4-1.9.5-2.2.5-.2.8-.4.9-1,0-.5.4-.9,1-.8.5,0,.9-.1.9-.7,0-1.2.3-2.3,1.7-2.6,0,0,0-.1,0-.1.5-1.2,1.5-1,2.4-.9,1,.1,1.9-.3,2.8-.6s.4-.5.7-.8c.4-.2.6-.4.7-.5"/>
        <path d="M137.3,30.8c-.6,0-1-.1-1.5-.1-.6-1.1.3-1.8.6-2.6.1-.3.4-.6.7-.9.1.4.2.8.2,1.2v2.4"/>
        <path d="M86.5,31.8c.9.6,1.9,1,1.2,2.3-1.4-.8-1.6-1.1-1.2-2.3"/>
        <path d="M48,39.2c.2.8.4,1.7.5,2.5-1,.1-1.3-1-.8-2.5h.3"/>
        <path d="M442.3,51.5c0,.7-.1,1.3-.1,1.8-.8.2-1-.1-1-.8,0-.6.1-1.1,1.1-1"/>
        <path d="M135.7,41.3c.4,0,.7-.1,1-.1.1.7.2,1.3-.4,1.7-.1.1-.3.2-.4.2-.1-.2-.2-.3-.2-.5-.1-.3,0-.8,0-1.3"/>
        <path d="M134.8,54c.3-.2.6-.6,1-.6s.4.4.7.7q-.1.1-.2.2h-1.3c0-.1-.2-.2-.2-.3"/>
        <path d="M405.2,22.1c-.1-.5-.1-.7-.1-1.3.5.3.7.4,1,.6-.2.2-.5.4-.9.7"/>
        <path d="M135.7,51.3v1h-.8c-.1-.5-.3-1.1.8-1"/>
        <path d="M49.1,61c.4.2.7.4,1,.6,0,.1,0,.2-.2.3-.3.1-.6.1-1,.2,0-.5,0-.8.2-1.1"/>
        <path d="M330.6,4.9c.4.2.8.3,1.2.5-.1.1-.1.2-.2.4-.4-.2-.8-.4-1.1-.6v-.3h.1Z"/>
        <path d="M418.4,108.4v-3.2h1.6c1.4,0,2.1.5,2.1,1.6s-.5,1.6-2.2,1.6h-1.5ZM416,115.5h2.4v-4.8h2.2l2.1,4.8h2.5l-2.4-5.6c1-.5,1.9-1.4,1.9-3.1s-1.6-3.7-4.5-3.7h-4.2v12.4h0ZM405.7,110.2l1.5-3.6,1.5,3.6h-3ZM401.1,115.5h2.6l1.3-3.1h4.4l1.3,3.1h2.6l-5.2-12.4h-1.7l-5.3,12.4h0ZM392.5,108v-2.8h1.2c1.6,0,2.5.2,2.5,1.4s-1,1.4-2.5,1.4h-1.2ZM392.5,113.4v-3.3h1c2.3,0,3.2.3,3.2,1.7s-1,1.7-2.3,1.7h-1.9ZM390.1,115.5h4.3c3.1,0,4.7-1.2,4.7-3.6s-.8-2.5-2.3-2.8c1.3-.5,1.8-1.5,1.8-2.7,0-2.4-1.7-3.3-4.7-3.3h-3.9v12.4h.1ZM371.7,115.5h8.7v-2.2h-6.3v-2.9h4.2v-2.2h-4.2v-2.9h5.9v-2.2h-8.2v12.4h-.1ZM365,115.5h2.7v-12.4h-2.3v8.6l-5.3-8.6h-3.1v12.4h2.3v-9.4l5.7,9.4h0ZM350.4,115.5h2.4v-12.4h-2.4v12.4h0ZM334.5,115.5h1.7l2.7-8.4,2.7,8.4h1.7l4.5-12.4h-2.6l-2.8,8-2.5-8h-2.2l-2.5,8-2.8-8h-2.6l4.7,12.4h0ZM324.4,108.8c-.2-.4-.5-.6-.9-.9-.4-.2-.7-.3-1.2-.3s-.8.1-1.2.3c-.4.2-.6.5-.9.9-.2.4-.3.7-.3,1.2s.2,1.2.7,1.7,1,.7,1.6.7,1.2-.2,1.7-.7.7-1,.7-1.7c.2-.5,0-.8-.2-1.2M305.3,115.5h8.7v-2.2h-6.3v-2.9h4.2v-2.2h-4.2v-2.9h5.9v-2.2h-8.2v12.4h-.1ZM294.7,115.5h2.4v-5h3.6v-2.2h-3.6v-3h5.4v-2.2h-7.8v12.4h0ZM284.4,110.2l1.4-3.6,1.5,3.6h-2.9ZM279.7,115.5h2.6l1.3-3.1h4.4l1.3,3.1h2.6l-5.2-12.4h-1.7l-5.3,12.4h0ZM273.4,115.8c1.7,0,3.2-.5,4.4-2l-1.6-1.4c-.9.9-1.9,1.2-2.9,1.2-2.2,0-3.8-1.7-3.8-4.3s1.7-4.3,3.8-4.3,2.3.6,2.9,1.2l1.6-1.4c-.9-1.2-2.5-1.9-4.4-1.9-3.7,0-6.3,2.8-6.3,6.5s2.7,6.4,6.3,6.4M260.7,108.8c-.2-.4-.5-.6-.9-.9-.4-.2-.8-.3-1.2-.3s-.8.1-1.2.3c-.4.2-.6.5-.9.9-.2.4-.3.7-.3,1.2s.2,1.2.7,1.7,1,.7,1.6.7,1.2-.2,1.7-.7.7-1,.7-1.7c0-.5,0-.8-.2-1.2M245,115.5h2.4v-5.7l4.9-6.7h-2.9l-3.3,4.4-3.3-4.4h-2.9l4.9,6.7v5.7h.2ZM232,108.4v-3.2h1.6c1.4,0,2.1.5,2.1,1.6s-.5,1.6-2.2,1.6h-1.5ZM229.6,115.5h2.4v-4.8h2.2l2.1,4.8h2.5l-2.4-5.6c1-.5,1.9-1.4,1.9-3.1s-1.6-3.7-4.5-3.7h-4.2v12.4h0ZM217.7,115.5h8.7v-2.2h-6.3v-2.9h4.2v-2.2h-4.2v-2.9h5.9v-2.2h-8.2v12.4h-.1ZM212.3,115.5h2.9l-5.2-6.4,4.7-6h-2.8l-4.6,5.9v-5.9h-2.4v12.4h2.4v-6.1l5,6.1h0ZM194.6,110.2l1.5-3.6,1.5,3.6h-3ZM190,115.5h2.6l1.3-3.1h4.4l1.3,3.1h2.6l-5.2-12.4h-1.7l-5.3,12.4h0ZM181.4,108v-2.8h1.2c1.6,0,2.5.2,2.5,1.4s-1,1.4-2.5,1.4h-1.2ZM181.4,113.4v-3.3h1c2.3,0,3.2.3,3.2,1.7s-1,1.7-2.3,1.7h-1.9ZM179,115.5h4.3c3.1,0,4.7-1.2,4.7-3.6s-.8-2.5-2.4-2.8c1.3-.5,1.8-1.5,1.8-2.7,0-2.4-1.7-3.3-4.7-3.3h-3.9v12.4h.2ZM172,108.8c-.2-.4-.5-.6-.9-.9-.4-.2-.8-.3-1.2-.3s-.8.1-1.2.3c-.4.2-.6.5-.9.9-.2.4-.3.7-.3,1.2s.2,1.2.7,1.7,1,.7,1.6.7,1.2-.2,1.7-.7.7-1,.7-1.7c0-.5,0-.8-.2-1.2M154.6,108.4v-3.2h1.6c1.4,0,2.1.5,2.1,1.6s-.5,1.6-2.2,1.6h-1.5ZM152.2,115.5h2.4v-4.8h2.2l2.1,4.8h2.5l-2.4-5.6c1-.5,1.9-1.4,1.9-3.1s-1.6-3.7-4.5-3.7h-4.2v12.4h0ZM140.4,115.5h8.7v-2.2h-6.3v-2.9h4.2v-2.2h-4.2v-2.9h5.9v-2.2h-8.3v12.4h0ZM132.7,115.8c1.7,0,3.2-.5,4.4-2l-1.6-1.4c-.9.9-1.9,1.2-2.9,1.2-2.2,0-3.8-1.7-3.8-4.3s1.7-4.3,3.8-4.3,2.3.6,2.9,1.2l1.6-1.4c-.9-1.2-2.5-1.9-4.4-1.9-3.7,0-6.3,2.8-6.3,6.5s2.7,6.4,6.3,6.4M113.2,109.3c0-2.4,1.7-4.3,3.9-4.3s3.9,1.9,3.9,4.3-1.7,4.3-3.9,4.3-3.9-1.9-3.9-4.3M117.1,115.8c3.5,0,6.4-2.6,6.4-6.5s-2.9-6.5-6.4-6.5-6.4,2.6-6.4,6.5,2.8,6.5,6.4,6.5M101.2,108.4v-3.2h1.6c1.4,0,2.1.5,2.1,1.6s-.5,1.6-2.2,1.6h-1.5ZM98.8,115.5h2.4v-4.8h2.2l2.1,4.8h2.5l-2.4-5.6c1-.5,1.9-1.4,1.9-3.1s-1.6-3.7-4.5-3.7h-4.2v12.4h0ZM90.4,115.8c2.5,0,4.2-1.3,4.9-2.4v-4.6h-4.5v2.1h2.3v1.6c-.5.6-1.6,1.1-2.7,1.1-2.2,0-3.8-1.7-3.8-4.3s1.6-4.2,3.8-4.2,2.2.4,2.8,1.2l1.6-1.4c-1-1.2-2.6-1.9-4.4-1.9-3.6,0-6.3,2.7-6.3,6.5,0,3.7,2.7,6.3,6.3,6.3"/>
        <path d="M171.4,107.1c.2.3.3.5.5.7.1-.1.2-.2.3-.3.2-.1.5.1.4.3,0,.4,0,.7.2,1h0c-.3.2-.2.5-.2.7.1.3.1.5-.2.8-.2.1-.3.4-.5.6-.1.1-.2.1-.3.1-.2.1-.3.2-.4.3-.1.1-.2.3-.3.4h-.1c-.2.5-.4.6-.8.3,0,0-.1-.1-.2-.1,0,.1-.1.2-.1.3h0c-.1,0-.3.1-.5.2-.1,0-.2-.1-.3-.2-.1.2-.1.4-.4.3-.1-.4-.1-.6-.5-.6-.1-.2-.1-.3-.2-.5,0,0,0,.1-.1.1h-.4c-.1,0-.1-.2-.1-.4.1-.5-.1-.8-.3-1.2-.2-.3,0-.7.3-.7s.3-.1.4-.3c0-.2.2-.3.4-.2.2,0,.3,0,.3-.2.1-.4.2-.8.7-.8h.1c.2-.4.6-.3.9-.2.4.1.7,0,1-.1.1,0,.2-.2.3-.2,0,0,0,0,.1,0"/>
        <path d="M260.3,107.2c.2.3.3.5.5.7l.3-.3c.2-.1.5.1.4.3,0,.4,0,.7.2,1h0c-.3.2-.2.5-.2.7.1.3.1.5-.2.8-.2.1-.3.4-.5.6s-.2.1-.3.1c-.2.1-.3.2-.4.3-.1.1-.2.3-.3.4h-.1c-.2.5-.4.6-.8.3,0,0-.1-.1-.2-.1,0,.1-.1.2-.1.3h0c-.1,0-.3.1-.5.2-.1,0-.2-.1-.3-.2-.1.2-.1.4-.4.3-.1-.4-.1-.6-.5-.6-.1-.2-.1-.3-.2-.5,0,0,0,.1-.1.1h-.4c-.1,0-.1-.2-.1-.4.1-.4-.1-.8-.3-1.2-.2-.3,0-.7.3-.7s.3-.1.4-.3c0-.2.2-.3.4-.2.2,0,.3,0,.3-.2.1-.4.2-.8.7-.8h.1c.2-.4.6-.3.9-.2.4.1.7,0,1-.1.1,0,.2-.2.3-.2,0,0,0,0,.1,0"/>
        <path d="M324,107.1c.2.3.3.5.5.7l.3-.3c.2-.1.5.1.4.3,0,.4,0,.7.2,1h0c-.3.2-.2.5-.2.7.1.3.1.5-.2.8-.2.1-.3.4-.5.6s-.2.1-.3.1c-.2.1-.3.2-.4.3-.1.1-.2.3-.3.4h-.1c-.2.5-.4.6-.8.3,0,0-.1-.1-.2-.1,0,.1-.1.2-.1.3h0c-.1,0-.3.1-.5.2-.1,0-.2-.1-.3-.2-.1.2-.1.4-.4.3-.1-.4-.1-.6-.5-.6-.1-.2-.1-.3-.2-.5,0,0,0,.1-.1.1h-.4c-.1,0-.1-.2-.1-.4.1-.5-.1-.8-.3-1.2-.2-.3,0-.7.3-.7s.3-.1.4-.3c0-.2.2-.3.4-.2.2,0,.3,0,.3-.2.1-.4.2-.8.7-.8h.1c.2-.4.6-.3.9-.2.4.1.7,0,1-.1.1,0,.2-.2.3-.2,0,0,0,0,.1,0"/>
      </g>
    </g>
  </g>
</svg>