<?xml version="1.0" encoding="UTF-8"?>
<svg xmlns="http://www.w3.org/2000/svg" version="1.1" viewBox="0 0 564 119.2">
  <!-- Generator: Adobe Illustrator 28.7.3, SVG Export Plug-In . SVG Version: 1.2.0 Build 164)  -->
  <g>
    <g id="Layer_1">
      <g>
        <path d="M163,112.7l-21.1-45.6s-.1-.3-.3-.3-.3.2-.3.2c0,0-20.9,43-22,45.4-1.3,2.8-2.2,3.6-5.8,3.8v1.5h11.6v-1.5c-3.6-.2-3.7-.6-2.2-3.7,2.2-4.6,8.7-18.6,8.7-18.6h17.9c0-.1,5.2,10.4,7,14.5.5,1.1,2.3,4.8,2.3,6s-.9,1.7-3.6,1.8v1.5h13v-1.6c-3.5,0-5.2-3.4-5.2-3.4h0ZM146.4,91c-3.3.1-9.7.1-12,.1-2.3-.1-.7-2.4-.7-2.4l6.4-13.2c.4-.8,1-.7,1.4,0,1.7,3.4,5.3,11.5,6.3,13.7.6,1.4,0,1.8-1.4,1.8h0Z"/>
        <path d="M222.2,69h37.2v7h-1.6v-3.3c0-.3-.6-.3-.7-.3h-14.5v39.4c0,3,1,4.7,4.2,5v1h-11.5v-.9c2.9-.5,3.6-2.4,3.6-5v-39.4h-14.5c-.1,0-.7,0-.7.3v3.3h-1.6v-7.1h.1Z"/>
        <path d="M36.4,116.6v1.1h12.1v-1.1c-2.4-.2-3.9-1-3.9-3.7h0c0-6,0-37.4,0-39.1,0-3.1,2.3-3.4,3.8-3.7v-1.1h-12.3v1.1c2.4.2,3.9,1,3.9,3.6,0,4.1,0,17.4,0,17.4H8.6s0-14.8-.1-17.4c0-3.1,2.3-3.4,3.8-3.6v-1.1H0v1.1c2.2.2,3.6.9,3.9,3v39.8c0,3.1-1.7,3.5-3.5,3.7v1.1h12.1v-1.1c-2.4-.2-3.9-1-3.9-3.7v-18.9h31.5v19.1c-.2,2.9-1.9,3.2-3.7,3.5h0Z"/>
        <path d="M311.3,116.6v1.1h12.1v-1.1c-2.4-.2-3.9-1-3.9-3.7h0c0-6-.1-37.4-.1-39.1,0-3.1,2.3-3.4,3.8-3.7v-1.1h-12.3v1.1c2.4.2,3.9,1,3.9,3.6.1,4.1.1,17.4.1,17.4h-31.4s0-14.8-.1-17.4c0-3.1,2.3-3.4,3.8-3.6v-1.1h-12.3v1.1c2.2.2,3.6.9,3.9,3v39.8c0,3.1-1.7,3.5-3.5,3.7v1.1h12.1v-1.1c-2.4-.2-3.9-1-3.9-3.7v-18.9h31.5v19.1c-.2,2.9-1.9,3.2-3.7,3.5h0Z"/>
        <path d="M97.9,111c0,3.1-.5,4.4-5,4.4h-16.7c0-2.4,0-7.8,0-14h0v-4.9c0-3.4.3-3.3,1.5-3.4s15.5-.5,15.5-.5l.3-3s-13.4.6-15.8.5c-1.5,0-1.6-.1-1.7-2.5,0-1.3,0-13,0-13,0-3.4,0-3.3,3.5-3.3s7-.1,8.5-.1c3.3,0,6.6.5,7.3,1.2.8.9,1.2,2.5,1.2,2.5h.8c0-.1.5-6.3.5-6.3h-2.4s-11.3.3-15,.5-11.4-.1-11.9,0v1.2s1.4.1,2.3.5c.9.3,1.4,1.1,1.5,3.2,0,1.4,0,16.2.2,26.3,0,8.2-.4,15.6-1.3,17.5h28.2v-6.7h-1.3Z"/>
        <path d="M189.1,73.6c0,7-.1,35.3,0,41.9h17c4.5,0,5.1-1.3,5.1-4.5h1.3v6.7h-28.7c2.3-4.6,1.2-41.2,1.2-44.2s-.8-3.1-3.6-3.6v-.9h11.9v1c-3.1.3-4.2,1.3-4.2,3.6"/>
        <path d="M556,90.4c-1.4-.3-3.6-.3-3.8-.9-.3-.8,4-3.4,6.2-7.4,3.5-6.3-.8-13.3-9.4-13.3s-5.9.2-16.8.2v1.4c1.7.2,3.2,0,3.2,5.5.4,6.6,1.2,33.9,0,41.6,4.1,0,8,.5,12-.1,7.6-1,12.6-4.3,15.2-10.1,3.3-7.2.7-15.5-6.6-16.9h0ZM549,114.4c-3,.5-7.2.3-8.7.3s-.3-.2-.3-.4c-.3-5.2-.7-39.4-.7-41.8s0-.8.6-.8c2.7,0,5.4-.3,8.8.1,3.1.3,5.2,1.1,6.4,4.3,1.2,3.2.3,6.9-2.8,10-2.6,2.6-5,3.6-8.6,4.3v2.1c7.6,0,14.1-.1,16.1,6.5,1.7,6.3-.5,13.7-10.8,15.4h0Z"/>
        <path d="M405.1,78h-1.4c-1.4-3.1-1.4-4.2-6-5.4-6-1.6-12.2-1.6-17.8.2-7.1,2.4-11.3,6.9-12.2,14.3-1.2,7.8.6,14.8,6,20.8,4.2,4.5,9.5,6.5,15.7,7.1,5.7.3,11-1.2,16.3-3.8-.3,1.5-.8,2.4-1.6,2.8-7.2,3.6-14.7,5-22.5,3.2-8.8-2.1-15-7.2-17.4-16.4-1.9-7.5-1.6-15.4,3.4-21.8,3.8-5.1,9.6-7.5,15.8-9,6.5-1.5,13.3-1.1,19.9,1,2.4.8,2.2.8,2,3.5,0,.7,0,2.4-.2,3.5"/>
        <path d="M431.3,73.6c0,7-.1,35.3,0,41.9h17c4.5,0,5.1-1.3,5.1-4.5h1.3v6.7h-28.7c2.3-4.6,1.2-41.2,1.2-44.2s-.8-3.1-3.6-3.6v-.9h11.9v1c-3.1.3-4.2,1.3-4.2,3.6"/>
        <path d="M514.1,73.7c0-2.3,1.1-3.3,4.3-3.7v-1h-11.8v.9c2.9.5,4.4,1.8,4.4,3.8.4,11.2,1,17.5-.5,26.6-1.2,7.2-4,11.3-11.3,14.6-4.7,2.1-13.2,1.3-18.7-2.8-4.5-3.4-5.9-7.1-7.3-14.9-.5-3-.2-15.7-.2-23.5s1.1-3.3,4.3-3.7v-1h-12v.9c2.9.5,3.5,1.7,3.5,3.7.4,10.1-.7,18,.9,27.7,1.3,7.6,7.2,14.9,15.1,17,6.6,1.8,13.1.9,19-3,2.9-1.9,4.9-4.5,6.2-6.7,2.1-3.5,3.5-7.7,4-16.3.3-5.9,0-14.2,0-18.6"/>
        <path d="M255.5,22.2h4.6V4.1h9.5V0h-23.6v4.1h9.5v18.1h0ZM289.8,22.2h4.6V0h-4.6v8.8h-10.4V0h-4.6v22.2h4.6v-9.3h10.4v9.3h0ZM301.1,22.2h16.9v-3.9h-12.3v-5.3h8.3v-3.9h-8.3V3.9h11.5V0h-16.1v22.2h0Z"/>
      </g>
    </g>
  </g>
</svg>