<?xml version="1.0" encoding="UTF-8"?>
<svg xmlns="http://www.w3.org/2000/svg" version="1.1" viewBox="0 0 396.9 101.4">
  <!-- Generator: Adobe Illustrator 28.7.3, SVG Export Plug-In . SVG Version: 1.2.0 Build 164)  -->
  <g>
    <g id="Layer_1">
      <g>
        <path d="M5.1,88.3H.4c-.3,0-.4.1-.4.4v2.9c0,.3,0,.4.4.4h34.9c.3,0,.4-.1.5-.4l2.4-10.9c.1-.3,0-.5-.3-.6h-.9c-.3.1-.4.1-.4.4-3,7.8-9.2,7.8-17.7,7.8h-6.9v-41.1c0-.6,0-.7.7-.7h6.1c.3,0,.4-.1.4-.4v-3c0-.3,0-.4-.4-.4H.4c-.3,0-.4.1-.4.4v2.9c0,.3,0,.4.4.4h4.7c.7,0,.7.1.7.7v40.4c.1.7.1.8-.7.8h0ZM83.6,75.4h2.7c.3,0,.4-.1.4-.4v-15.1c0-.3-.1-.4-.4-.4h-2.7c-.3,0-.4.1-.4.4v5.5h-18.7c0,.1,0-18.9,0-18.9h18.5c4.1,0,5.4,1,7.4,6.9.1.2.2.3.4.4h.7c.3,0,.4-.2.4-.5v-10.1c0-.3-.1-.4-.4-.4h-38.5c-.3,0-.4.1-.4.4v2.9c0,.3.1.4.4.4h4.7c.7,0,.7.1.7.7v40.4c0,.6,0,.7-.7.7h-4.7c-.3,0-.4.1-.4.4v2.9c0,.3.1.4.4.4h38.4c.3,0,.4-.1.5-.4,1-5.1,1.7-9.3,1.9-10.9.1-.3,0-.5-.4-.6h-.9c-.3.1-.4.1-.4.4-2.9,7.7-9.2,7.8-17.7,7.8h-9.9v-19.2h18.7v5.9c0,.2,0,.4.4.4h0ZM131.2,92.1h.8c.3,0,.4-.1.5-.3l19.5-44.7c.2-.5.3-.7,1-.7h3.4c.3,0,.4-.1.4-.4v-2.9c0-.3-.1-.4-.4-.4h-13.3c-.3,0-.4.1-.4.4v2.9c0,.3.1.4.4.4h3.6c.9,0,.7.3.1,1.7l-14.3,34-14.4-34c-.6-1.3-.7-1.6.2-1.6h3.9c.3,0,.4-.1.4-.4v-3c0-.3-.1-.4-.4-.4h-16c-.3,0-.4.1-.4.4v2.9c0,.3.1.4.4.4h3.8c.7,0,.8.1,1,.7l19.6,44.6c.2.3.3.4.6.4h0ZM199.2,75.4h2.7c.3,0,.4-.1.4-.4v-15.1c0-.3-.1-.4-.4-.4h-2.7c-.3,0-.4.1-.4.4v5.5h-18.7c0,.1,0-18.9,0-18.9h18.5c4.1,0,5.4,1,7.4,6.9.1.2.2.3.4.4h.7c.3,0,.4-.2.4-.5v-10.1c0-.3-.1-.4-.4-.4h-38.7c-.3,0-.4.1-.4.4v2.9c0,.3.1.4.4.4h4.7c.7,0,.7.1.7.7v40.4c0,.6,0,.7-.7.7h-4.7c-.3,0-.4.1-.4.4v2.9c0,.3.1.4.4.4h38.6c.3,0,.4-.1.5-.4,1-5.1,1.7-9.3,1.9-10.9.1-.3,0-.5-.4-.6h-.9c-.3.1-.4.1-.4.4-2.9,7.7-9.2,7.8-17.7,7.8h-9.9v-19.2h18.7v5.9c0,.2,0,.4.4.4h0ZM228.9,88.3h-4.7c-.3,0-.4.1-.4.4v2.9c0,.3.1.4.4.4h34.8c.3,0,.4-.1.5-.4l2.4-10.9c.1-.3,0-.5-.3-.6h-.9c-.3.1-.4.1-.4.4-3,7.8-9.2,7.8-17.7,7.8h-6.8v-41.1c0-.6,0-.7.7-.7h6.1c.3,0,.4-.1.4-.4v-3c0-.3-.1-.4-.4-.4h-18.4c-.3,0-.4.1-.4.4v2.9c0,.3.1.4.4.4h4.7c.7,0,.7.1.7.7v40.4c0,.7,0,.8-.7.8h0Z"/>
        <path d="M388.2,58.4c.9-2,1.6-4,2-6.2.7-4-.1-7.3-1.9-10.9-1-1.9-2.1-3.6-3.9-4.8-1.7-1.2-3.7-2.1-5.7-2.4-1.3-.2-3.5.3-3.3,2,.1.9-.1,2.1,1.2,2.6.5.2.3,1.6-.2,2.3-1.5,2.2-2.8,4.4-4.4,6.5-.8,1.1-2,2-3.1,2.9-.6.5-1.2.2-1.6-.5-2.5-4.3-2.4-10.1,1-14,2.1-2.4,4-4.8,6.2-7,1.6-1.7,3.3-3.3,5.1-4.8,1.7-1.4,3.7-1.1,5.6-.4,3.2,1.1,5.5,3.4,7.6,6,2.8,3.7,3.9,7.9,4.1,12.4.1,3.1-.1,6.5-1.4,9.7-1.2,2.9-2.6,5.6-4.1,8.3-1.5,2.7-2.9,4.7-4.5,7.3-1.1,1.9-3,4.1-4.4,6.1-2.7,3.8-5.4,6.8-8.8,10-2.4,2.2-4.7,4.5-7.2,6.6-2.2,1.8-4.5,3.6-7,5-2.2,1.2-4.7,1.9-7.5,1.6-5.2-.7-7.9-3.9-9.6-8.4-1.2-3.1-1.6-6.3-1.6-9.7-.1-4.7.5-9.4,1.5-13.9,1.1-5.1,2.5-10.1,4.9-14.7.9-1.7,2.1-4.4,3.2-5.9,1.5-2,1.6-2.5,3.4-4.3s3.7-2.1,4-2.2c.5-.2,1.3-.4,1.4-.2.4.5.7,1.3.5,1.8-.7,2.2-2.4,4-3.6,6-2.2,3.5-2.3,3.9-3.9,7.8-1,2.3-2.5,10.7-2.8,13.2-1.1,11.6,0,15.1,1.5,17.5,2,3.4,5.8,4.8,9.7,3.9,3.7-.9,8.6-4.9,11.3-7.4,5.8-5.2,10.2-11.7,14.3-18.2.7-1.2,1.4-2.4,2-3.6"/>
        <path d="M339.5,0c1.1.2,1.5.6,2,1s1.8,1.2,1.5,1.8c-1,1.5-1.7,2.9-2.3,4.5-1.5,3.7-2.9,7.4-4.2,11.2-.6,1.8-1.2,3.7-1.8,5.5-1.1,3.3-2.4,6.6-3.5,9.9-1.7,5-3.3,9.9-4.9,14.9-1.1,3.4-2.2,6.8-3.1,10.2-.9,3.3-1.4,6.7-2.2,10.1-1.1,4.2-2.3,8.3-3.5,12.4-1.1,3.9-2.7,7.7-3.1,11.8,0,.3-.1,1.5-.1,1.5,3.3.2,3.7.7,7,1.5.8.2,1.4.4,2.2.5,1.3.1,2.6.3,4,.5.3,0,.7.2.7.7-.1.7-.4.8-.6.9-1.8.1-3.7.2-5.5.2s-4.1-.4-6.1-.4c-4.5.1-9,.3-13.5.7-5.6.5-11.2,1.3-16.8,2-.3,0-.9-.2-.9-.6,0-.7.5-.8.8-.8,2.2-.6,4.7-.9,6.7-1.9,2.4-1.2,5-1.3,7.5-1.8,1-.2,2-.1,3-.3.7-.2,1.5-.5,2.1-.9,1.4-.9,2.3-2.2,2.7-3.9,1-4.2,2.3-8.4,3.3-12.6,1.1-4.5,1.7-9.1,3-13.6,2-7.2,4.2-14.4,6.5-21.6,1.1-3.5,2.5-7,3.7-10.5.5-1.3,1.4-3.8,1.8-5.1.8-2.5,3.3-9,3.3-9-.1-.1-.2-.1-.2-.2-1.2,1.5-2.5,3.3-3.8,5.2-2.9,4.3-5.6,7.4-8.8,11-2.9,3.3-6.3,6.3-10.3,8.2-1.2.6-2.9,1.2-4.4,1.5-3,.6-6.6-2.1-7.1-5.1-.4-2.6.3-6.3,1.6-8.5,1.3-2.1,2.4-4.3,3.7-6.5,1-1.7,2.1-3.2,3.2-4.8.3-.4,1.1-.8,1.5-1.1.2-.1.7-.2.9,0,.2.2.2.6.2.9s-.1.3-.2.4c-1.6,1.6-1.9,2.5-2.9,4.4-.3.5-.5,1.3-1.1,2.6-.8,1.8-1,3.7.7,4.8,1.4.8,2.8,1,4.2.4,4.5-1.6,8.7-4.1,12.2-7.5,3-2.9,5.6-5.7,8.4-8.8,2.4-2.7,4.8-5.4,7-8.2,1.7-2.1,3.2-4.4,4.8-6.6,0-.2.4-.5.7-.9"/>
      </g>
    </g>
  </g>
</svg>