<?xml version="1.0" encoding="UTF-8"?>
<svg xmlns="http://www.w3.org/2000/svg" version="1.1" viewBox="0 0 547.3 138.2">
  <defs>
    <style>
      .cls-1 {
        fill: #283583;
      }
    </style>
  </defs>
  <!-- Generator: Adobe Illustrator 28.7.3, SVG Export Plug-In . SVG Version: 1.2.0 Build 164)  -->
  <g>
    <g id="Layer_1">
      <g>
        <path class="cls-1" d="M32.3,138.2c7,0,15.5-1.9,20.9-5.4.3-.2.4-.4.5-.8l1.6-11.4c0-.4,0-.6-.4-.7s-.7-.2-1-.2-.5.1-.6.4c-4.2,9.6-11.6,13.7-20.2,13.7-14.7,0-25-13.4-25-29s10.3-26.1,23.8-26.1,16.5,4.2,20.9,11.9c.2.3.4.5.8.5s.6,0,.8-.1c.3-.1.5-.3.4-.7l-.9-14.1c0-.3,0-.5-.5-.5h-.9c-.3,0-.5.2-.7.5-1.1,1.9-1.4,2.4-1.7,2.4-1.7,0-6.9-4.2-18.1-4.2C12.8,74.4,0,89.9,0,106.7c0,19.7,16,31.5,32.3,31.5h0ZM84.8,132.6h-5.9c-.4,0-.5.1-.5.5v3.7c0,.4,0,.5.5.5h44.1c.4,0,.6-.1.6-.5l3.1-13.8c.1-.4,0-.7-.4-.8h-1.1c-.3.1-.5.2-.6.5-3.8,9.8-11.6,9.9-22.4,9.9h-8.6v-51.9c0-.8,0-.9.9-.9h7.7c.4,0,.5-.1.5-.5v-3.7c0-.4,0-.5-.5-.5h-23.2c-.4,0-.5.1-.5.5v3.7c0,.4,0,.5.5.5h5.9c.9,0,.9.2.9.9v51c-.1.8-.1.9-1,.9h0ZM185.2,116.3h3.4c.4,0,.5-.1.5-.5v-19c0-.4-.1-.5-.5-.5h-3.4c-.4,0-.5.1-.5.5v7h-23.6c0,.1,0-23.9,0-23.9h23.4c5.1,0,6.8,1.3,9.4,8.7.1.3.2.4.6.5h.9c.4,0,.5-.2.5-.6v-12.8c0-.4-.1-.5-.5-.5h-48.8c-.4,0-.5.1-.5.5v3.7c0,.4.1.5.5.5h5.9c.9,0,.9.2.9.9v51c0,.8,0,.9-.9.9h-5.9c-.4,0-.5.1-.5.5v3.7c0,.4.1.5.5.5h48.5c.4,0,.6-.1.6-.5,1.3-6.5,2.2-11.8,2.5-13.8.1-.4,0-.7-.5-.8h-1.1c-.3.1-.5.2-.6.5-3.7,9.7-11.7,9.9-22.3,9.9h-12.6v-24.3h23.6v7.4c0,.3.1.5.5.5h0ZM288.4,81.2v50.5c0,.8,0,.9-.9.9h-5.7c-.4,0-.5.1-.5.5v3.7c0,.4.1.5.5.5h20.7c.4,0,.5-.1.5-.5v-3.6c0-.4-.1-.5-.5-.5h-5.5c-.9,0-.9-.2-.9-.9v-51c0-.8,0-.9.9-.9h5.5c.4,0,.5-.1.5-.5v-3.7c0-.4-.1-.5-.5-.5h-26.2c-.4,0-.5.1-.5.5v3.7c0,.4.1.5.5.5h5.1c.9,0,1.1,0,.4,1.6l-19.7,43.3-20.7-43.3c-.6-1.3-.8-1.6,0-1.6h4.7c.4,0,.5-.1.5-.5v-3.7c0-.4-.1-.5-.5-.5h-24.7c-.4,0-.5.1-.5.5v3.7c0,.4.1.5.5.5h5.6c.9,0,.9.2.9.9v51c.1.8.1.9-.8.9h-5.7c-.4,0-.5.1-.5.5v3.7c0,.4.1.5.5.5h18.6c.4,0,.5-.1.5-.5v-3.7c0-.4-.1-.5-.5-.5h-5.4c-.9,0-.9-.2-.9-.9l-.2-47.9c0-.7,0-1,.2-1s.5.6.8,1.3l25.4,53.1c.1.2.2.3.5.3h1c.2,0,.4-.1.5-.3l25.7-55.7c.2-.5.4-.9.6-.9,0-.1.2.1.2.5h0ZM363.6,116.3h3.4c.4,0,.5-.1.5-.5v-19c0-.4-.1-.5-.5-.5h-3.4c-.4,0-.5.1-.5.5v7h-23.6c0,.1,0-23.9,0-23.9h23.4c5.1,0,6.8,1.3,9.4,8.7.1.3.2.4.6.5h.9c.4,0,.5-.2.5-.6v-12.8c0-.4-.1-.5-.5-.5h-48.8c-.4,0-.5.1-.5.5v3.7c0,.4.1.5.5.5h5.9c.9,0,.9.2.9.9v51c0,.8,0,.9-.9.9h-5.9c-.4,0-.5.1-.5.5v3.7c0,.4.1.5.5.5h48.5c.4,0,.6-.1.6-.5,1.3-6.5,2.2-11.8,2.5-13.8.1-.4,0-.7-.5-.8h-1.1c-.3.1-.5.2-.6.5-3.7,9.7-11.7,9.9-22.3,9.9h-12.6v-24.3h23.6v7.4c0,.3.1.5.5.5h0ZM397.5,137.4h18.9c.4,0,.5-.1.5-.5v-3.7c0-.4-.1-.5-.5-.5h-5.8c-.9,0-.9-.2-.9-.9l-.2-47.1,47.5,46.5c.8.8,1,1,1,2.4v3.4c0,.4.1.5.5.5h4.6c.4,0,.5-.1.5-.5v-56.1c0-.8,0-.9.9-.9h5.7c.4,0,.5-.1.5-.5v-3.7c0-.4-.1-.5-.5-.5h-19.1c-.4,0-.5.1-.5.5v3.7c0,.4.1.5.5.5h5.9c.9,0,.9.2.9.9v40.7l-41.6-40.4c-.7-.7-.8-.8-.8-.9s.1-.2.5-.2h5.6c.4,0,.5-.1.5-.5v-3.7c0-.4-.1-.5-.5-.5h-24.2c-.4,0-.5.1-.5.5v3.7c0,.4.1.5.5.5h5.4c.9,0,.9.2.9.9v51c.1.8.1.9-.8.9h-5.5c-.4,0-.5.1-.5.5v3.7c.1.1.2.3.6.3h0ZM505.1,137.4h22.9c.4,0,.5-.1.5-.5v-3.7c0-.4,0-.5-.5-.5h-6.7c-.9,0-.9-.2-.9-.9v-52c4,0,8.5,0,13.7.3,6.3.4,8.1,1.1,8.5,4.6,0,.4.2.6.5.7s.6.1.9.1.6-.1.6-.5l2.7-12c0-.3,0-.5-.4-.6-.3,0-.6-.1-.9-.1s-.5.1-.7.4c-1.5,1.9-2.8,2.2-5.8,2.3-6,.1-17.5.1-23,.1h-17.2c-5.9-.1-6.8-.3-7.5-2.5,0-.3-.3-.5-.6-.6-.3,0-.6-.1-.9-.1s-.5.1-.5.5l-3,12.3c-.1.4,0,.6.3.8.2.1.5.2.8.2.4.1.6,0,.8-.3,2.9-4.3,4.8-5,10.4-5.2,6-.2,10.5-.3,13.6-.3v52c0,.8,0,.9-.9.9h-6.7c-.4,0-.5.1-.5.5v3.7c0,.2.2.4.5.4h0Z"/>
        <path class="cls-1" d="M245.1,24h5V4.4h10.2V0h-25.5v4.4h10.2v19.6h0ZM282.1,24h5V0h-5v9.5h-11.2V0h-5v24h5v-10.1h11.2v10.1h0ZM294.2,24h18.2v-4.2h-13.3v-5.7h8.9v-4.2h-8.9v-5.5h12.4V.2h-17.3v23.8h0Z"/>
      </g>
    </g>
  </g>
</svg>