<?xml version="1.0" encoding="UTF-8"?>
<svg xmlns="http://www.w3.org/2000/svg" version="1.1" viewBox="0 0 513.2 64.5">
  <defs>
    <style>
      .cls-1 {
        fill: #283583;
      }
    </style>
  </defs>
  <!-- Generator: Adobe Illustrator 28.7.3, SVG Export Plug-In . SVG Version: 1.2.0 Build 164)  -->
  <g>
    <g id="Layer_1">
      <g>
        <path class="cls-1" d="M81.6,0c-16.9,0-30.6,14.5-30.6,32.2s13.7,32.3,30.6,32.3,30.5-14.5,30.5-32.3S98.4,0,81.6,0h0ZM81.6,54.4c-11.7,0-20.6-9.9-20.6-22.2s8.9-22.1,20.6-22.1,20.5,9.9,20.5,22.1-8.9,22.2-20.5,22.2h0Z"/>
        <polygon class="cls-1" points="223.3 58.8 220.7 63.2 233.3 63.2 233.3 5.9 235.9 1.4 223.3 1.4 223.3 58.8"/>
        <path class="cls-1" d="M466.2,31.7c5-1.4,9.2-5.3,9.2-13.1s-6-17.2-18.7-17.2h-19.3l2.6,4.4v53l-2.6,4.4h12.6V10.7h6.6c5.7,0,8.6,3.5,8.6,7.9s-2.5,9.6-12.1,11.1c8.1,22.3,24.1,34.1,40.7,34.1s15.3-.9,19.4-5.6c-14.9.2-36.3-3.4-47-26.5h0Z"/>
        <path class="cls-1" d="M397.8,1.4l1.5,4.6-18.6,57.2h14l-1.8-3.7,2.8-8.7h18l2.8,8.7-1.8,3.7h14L408.7,1.4h-10.9ZM398.6,41.9l6.2-19,6.2,19h-12.4Z"/>
        <path class="cls-1" d="M281.1,27c-5.6-2-11.2-5.2-11.2-10.4s4.1-7.5,7.8-7.5c6.6,0,11.1,1.9,15.3,5.9V2.5l-2.2,1.4c-5.1-3.1-9.3-3.6-13.2-3.6-9.7,0-17.7,7-17.7,16.8s2.9,11,7.8,14.7c8,5.9,18.2,6,18.2,13.9s-5.3,9.7-10.3,9.7c-7.3,0-13.2-2-17.3-6.9v14.7l3.1-1.8c5.4,2.1,9.4,2.8,14.2,2.8,17.2,0,20.7-10.2,20.7-20.2,0-10.4-8.6-14.6-15.2-17h0Z"/>
        <path class="cls-1" d="M246.6,5.8c0,1,0,7.2-2.6,13.2,1.8,0,10-5.7,10-17.6h-10l2.6,4.4h0Z"/>
        <path class="cls-1" d="M33,29.7c2.6-1.6,5-5.9,5-11.1,0-9.7-6-17.2-18.7-17.2H0l2.6,4.4v53l-2.6,4.4h20c13.7,0,20.2-8.1,20.2-18.6s-3.2-12.8-7.2-14.9h0ZM20,53.1h-7.3V10.6h6.6c5.7,0,8.6,3.5,8.6,7.9s-2.5,9.6-12.1,11.1c9.2,2.4,13.3,7.6,13.3,13.1,0,7-4.1,10.4-9.1,10.4h0Z"/>
        <path class="cls-1" d="M154.2,29.7c2.6-1.6,5-5.9,5-11.1,0-9.7-6-17.2-18.7-17.2h-19.3l2.6,4.4v53l-2.6,4.4h20c13.7,0,20.2-8.1,20.2-18.6s-3.2-12.8-7.2-14.9h0ZM141.2,53.1h-7.3V10.6h6.6c5.7,0,8.6,3.5,8.6,7.9s-2.5,9.6-12.1,11.1c9.2,2.4,13.3,7.6,13.3,13.1s-4.1,10.4-9.1,10.4h0Z"/>
        <path class="cls-1" d="M203.5,29.7c2.6-1.6,5-5.9,5-11.1,0-9.7-6-17.2-18.7-17.2h-19.3l2.6,4.4v53l-2.6,4.4h20c13.7,0,20.2-8.1,20.2-18.6s-3.2-12.8-7.2-14.9h0ZM190.5,53.1h-7.3V10.6h6.6c5.7,0,8.6,3.5,8.6,7.9s-2.5,9.6-12.1,11.1c9.2,2.4,13.3,7.6,13.3,13.1,0,7-4,10.4-9.1,10.4h0Z"/>
        <path class="cls-1" d="M366.4,29.7c2.6-1.6,5-5.9,5-11.1,0-9.7-6-17.2-18.7-17.2h-19.3l2.6,4.4v53l-2.6,4.4h20c13.7,0,20.2-8.1,20.2-18.6s-3.2-12.8-7.2-14.9h0ZM353.4,53.1h-7.3V10.6h6.6c5.7,0,8.6,3.5,8.6,7.9s-2.5,9.6-12.1,11.1c9.2,2.4,13.3,7.6,13.3,13.1s-4.1,10.4-9.1,10.4h0Z"/>
      </g>
    </g>
  </g>
</svg>