<?xml version="1.0" encoding="UTF-8"?>
<svg xmlns="http://www.w3.org/2000/svg" version="1.1" viewBox="0 0 500 148.9">
  <defs>
    <style>
      .cls-1 {
        fill: #fff;
      }
    </style>
  </defs>
  <!-- Generator: Adobe Illustrator 28.7.3, SVG Export Plug-In . SVG Version: 1.2.0 Build 164)  -->
  <g>
    <g id="Layer_1">
      <g>
        <path class="cls-1" d="M228.4,35.2h4.9l2.5-6h8.5l2.5,6h4.9l-10.1-23.9h-3.2l-10,23.9h0ZM237.3,25l2.8-7,2.8,7h-5.6ZM214.6,35.7c3.2,0,6.2-1,8.6-3.8l-3-2.8c-1.7,1.8-3.7,2.4-5.6,2.4-4.2,0-7.3-3.3-7.3-8.2s3.3-8.2,7.3-8.2,4.4,1.1,5.6,2.3l3-2.8c-1.8-2.3-4.7-3.8-8.6-3.8-7.2,0-12.1,5.4-12.1,12.5-.1,7.3,5.1,12.4,12.1,12.4h0ZM280.6,35.2h16.7v-4.2h-12.2v-5.7h8.2v-4.2h-8.2v-5.5h11.3v-4.2h-15.9v23.8h.1Z"/>
        <polygon class="cls-1" points="258.2 35.2 262.8 35.2 262.8 25.3 271 25.3 271 21.1 262.8 21.1 262.8 15.6 274.1 15.6 274.1 11.3 258.2 11.3 258.2 35.2"/>
        <polygon class="cls-1" points="283.4 5.1 285.1 8.4 294.6 3.3 292.9 0 283.4 5.1"/>
        <path class="cls-1" d="M23.4,148.2c6.9-.3,8.5-1,12.2-2.2,1.2-.4,2.4-1.1,2.5-2.6.4-3.4.7-5.9,1.2-10.1,0-.1,0-.2,0-.3-.2-.2-1.1-.3-1.3-.4-.2-.1-.4.1-.4.2,0,.4-.4,1.2-.7,2-2.6,5.7-4.5,10.1-13.7,10.1s-8.1-1.1-11.7-6.4c-3.2-4.6-4.4-9.7-4.4-14.7,0-7.3,2.7-14.4,6.1-19.4,4.4-6.4,12.3-11.7,18.3-14,2-.7,4.9-1.5,7.1-1.5s3.6.6,3.6,2.5v6c0,.1.2.2.3.2h2.9c0,0,.2-.1.2-.2v-8.9c0-2.7-.4-3-3.1-2.9-2.8,0-9.1,1-12.6,2.3-11.7,4.4-21.2,9.8-26.2,20.8-2.3,5-3.6,10.3-3.6,15.5s1.9,12.2,6,16.8c4.3,5.1,10.5,7.4,17.4,7.2h0ZM64.3,148.2h43.8c3.6,0,4.6-1.9,5.9-6.6.8-3,1.4-6,2-9h-2c-.5,1.2-1.4,2.9-2.2,4.4-1.4,2.2-2.9,5.1-6.6,6-6.1,1.5-12.1,1.7-18.1,1.7h-6.2c-1.8,0-2.6-.5-2.6-1.8s0-.9.3-1.4c2.2-8.2,10.3-40,11.8-48.2.7-2.9,2.1-5.2,5.2-5.2h2.8c.1,0,.2,0,.2-.2v-1.8c0-.2-.1-.2-.2-.2h-21.8c0,0-.2,0-.2.2v1.9c0,.2,0,.2.2.2h2.8c2.5,0,4.2,1.1,4.2,3.6s-.1,1.1-.2,1.6c-1.2,5.4-8.9,37.8-10.7,45.3-.9,3.7-1.2,7.4-8.2,7.4s-.2.1-.2.3v1.8c-.2,0,0,0,0,0h0ZM271.2,88.7c-3.9,0-5.7-.4-5.9,2.7l-2.2,50.5c-.1,2.4,1.2,4,5.4,4s.2.1.2.3v1.8c0,.1-.1.2-.2.2h-17.9c-.1,0-.2-.1-.2-.2v-1.8c0-.2,0-.3.2-.3,3.6,0,5.6-1.6,5.8-4l3-44.9c.1-.7-1.2-.8-1.6,0-6.5,14.4-15.1,33.8-21.7,48.5-.4.7-.6,1.5-1.4,1.5s-1-.7-1.1-1.5c-.8-6.5-6.4-46.4-7-49.9-.1-.4-.7-.4-1,0-.2.3-13.3,31.3-17.8,44.9-.4,1-.4,1.7-.4,2.2,0,1.6,1.2,3.2,6.3,3.2s.2.1.2.3v1.8c0,.1-.1.2-.2.2h-18.3c-.1,0-.2-.1-.2-.2v-1.8c0-.2,0-.3.2-.3,4.8-.1,7.4-2.5,8.7-5.4,5.2-11.7,16.5-39.2,20.4-47.3.4-.8.6-1.4.6-2,0-1.5-1.4-2.3-3.5-2.3h-6.6c-.2-.1-.2-.2-.2-.4v-2.4c0-.1.1-.2.2-.2h14.2c1.5,0,2.6.8,2.8,2.3l6.3,42.6c.1.7.4,1.5.8,1.5s.8-.4,1-.8c1.3-2.7,15.3-35.5,18.9-43.3.6-1.5,2.5-2.3,3.9-2.3h8.2c.1,0,.1.1.1.2v2.4c.2,0,.2.2,0,.2h0ZM416.3,92.8c-1,6.9-6.5,50.4-7.1,55.2,0,.1-.1.2-.2.2h-2c-.1,0-.2,0-.3-.2-2.8-5.1-25.5-42.1-31.9-52.4-.3-.4-.7-.4-1,0-.2.3-5.6,31.3-7.7,44.9-.2,1-.4,1.7-.4,2.2,0,1.6,1.2,3.2,6.3,3.2s.2.1.2.3v1.8c0,.1-.1.2-.2.2h-18.3c-.1,0-.2-.1-.2-.2v-1.8c0-.2,0-.3.2-.3,4.8-.1,7.9-2.3,8.7-5.4,2.8-11.7,7.4-38,9.7-47.3.5-2.2,0-4.3-3.4-4.4h-6.1c-.2-.1-.2-.2-.2-.4v-2.3c0-.1.1-.2.2-.2h14.2l.7,1.4c3.7,6.8,8.5,13.3,12.7,20.1,3,5,11,19.2,14.2,24.3.4.6,2,3.9,2.8,3.9s1.1-.6,1.2-1.5c.5-4.3,4.1-36.1,4.7-41.5.5-4.4-1.2-4.4-6.2-4.4s-.2-.1-.2-.3v-1.8c0-.1.1-.2.2-.2h17.6c.1,0,.2.1.2.2v1.8c0,.2,0,.3-.2.3-4.1,0-7.7.7-8.2,4.6h0ZM492.4,87.8h-35.2c-2.2,0-3.7-1.5-3.7-3.6s0-.6-.3-.6h-1.9c-.3,0-.3.4-.4.6-.3.9-3.9,11-5.6,14.7-.3.6-.5,1.2-.8,1.8s0,.3.1.3h1.7c.1.1.2.1.3,0l1-1.4c2-2.9,4.4-5.9,7.4-7.3,4.3-2.2,8.6-2.2,13.1-2.2s4.4.9,3.6,4.4c-2.5,11-7.3,34.2-10.2,47.5-.5,2.3-2.1,3.8-4.3,3.8h-4.5c-.2,0-.2.1-.2.3v2c0,.1.1.2.3.2h24.8c.2,0,.3-.1.3-.2v-2c0-.2,0-.3-.2-.3h-4.5c-2.1,0-4.3-1.5-4.3-4.5s9.3-45.3,10.1-49c.4-1.4.7-2.2,2.7-2.2,4.6-.1,11.8-.6,13.5,1.8,2.1,3,1.4,8.5,1.4,9s0,.2,0,.2h1.8c0,0,.3-.1.3-.3,0-2,.9-11.6,1.2-16.5,0-.3,0-.6-.3-.6h-2.3c-.3,0-.3.4-.3.6,0,2.2-2.4,3.5-4.7,3.5h0ZM151.3,148.9c6.3,0,10.5-3.6,15.4-8.3l-1.4-1.3c-1.1,1-2.1,1.9-3.5,2.8-2.3,1.4-4.6,2-6.8,2-3.3,0-6.2-1.3-8.3-3.4s-3.4-5-3.4-8,.2-2.4.4-3.7c1.1-4.9,4.1-9,8.3-11.8,1.8-1.1,2.6-1.6,3.4-1.6s1.3.5,2.8,1.4c2.1,1.4,4.6,2,6.9,2,3.5,0,6.3-1.5,6.3-3.9s-3.5-4.6-7.7-4.6-3.3.3-5,.8c-.3.1-.5.2-.8.2-1.6,0-2-2.7-2.2-5-.9-7.6,5.5-18.7,17.3-18.7s11.7,4.5,10.8,7.3c-.3.8-2,1.9-2,4s.7,3,2.7,3,4.1-2.8,4.3-4.2c1.2-8.6-7.2-13.7-16.5-13.7-13.3,0-20.5,6-21.4,17-.4,5.7,2.4,9.5,3,11.2-1.4.7-6.7,3.9-11.1,8.7-3.7,4.1-6.4,9.6-6.4,14.5s1.2,6.8,4.4,9.5c3.4,3.1,7.6,3.8,10.5,3.8h0ZM165.6,116.8c-2.2,0-5.4-1.3-6.9-3.3,1.6-.5,3.6-.9,5.4-.9s4,.6,4,2.4-1,1.8-2.5,1.8h0ZM307.6,148.9c6.3,0,10.5-3.6,15.4-8.3l-1.4-1.3c-1.1,1-2.1,1.9-3.5,2.8-2.3,1.4-4.6,2-6.8,2-3.3,0-6.2-1.3-8.3-3.4-2.4-2.4-3.4-5-3.4-8s.2-2.4.4-3.7c1.1-4.9,4.1-9,8.3-11.8,1.8-1.1,2.6-1.6,3.4-1.6s1.3.5,2.8,1.4c2.1,1.4,4.6,2,6.9,2,3.5,0,6.3-1.5,6.3-3.9s-3.5-4.6-7.7-4.6-3.3.3-5,.8c-.3.1-.5.2-.8.2-1.6,0-2-2.7-2.2-5-.9-7.6,5.5-18.7,17.3-18.7s11.7,4.5,10.8,7.3c-.3.8-2,1.9-2,4s.7,3,2.7,3,4.1-2.8,4.3-4.2c1.2-8.6-7.2-13.7-16.5-13.7-13.3,0-20.5,6-21.3,17-.4,5.7,2.4,9.5,3,11.2-1.4.7-6.7,3.9-11.1,8.7-3.7,4.1-6.4,9.6-6.4,14.5s1.2,6.8,4.4,9.5c3.3,3.1,7.4,3.8,10.4,3.8h0ZM321.8,116.8c-2.2,0-5.4-1.3-6.9-3.3,1.6-.5,3.6-.9,5.4-.9s4,.6,4,2.4-1,1.8-2.5,1.8h0Z"/>
      </g>
    </g>
  </g>
</svg>