<?xml version="1.0" encoding="UTF-8"?>
<svg xmlns="http://www.w3.org/2000/svg" version="1.1" viewBox="0 0 331.7 74.6">
  <!-- Generator: Adobe Illustrator 28.7.3, SVG Export Plug-In . SVG Version: 1.2.0 Build 164)  -->
  <g>
    <g id="Layer_1">
      <path d="M17.3,70.3L35.4,3.5c1.6-.1,4.7-.4,7-.8,4.5-.7,5.2-1.3,5.2-2.7-2.7,0-8.3.2-13.9.2s-11.6-.2-14.4-.2c0,1.5.3,2,4.9,2.7,2.1.3,5,.7,6,.8L12.2,70.2c-1.7.1-4.4.4-6.7.8-4.6.7-5.4,1.3-5.5,2.7,2.7,0,8.1-.2,13.7-.2h24.2c0,.1,8.5.1,8.5.1,3.3-2.1,6.1-6.7,8.3-16.5h-1.6c-3.6,8.1-6.5,13.3-14.8,13.3h-21ZM92.5,70c0,2.7,2,4.4,5.8,4.4s9-.8,11.8-2.5v-1c-1.9.3-3.6.4-5.4.4-2.9-.1-5.6-.4-7.5-1.2-.1-6.5,3.8-18.4,6.9-27.7,2.2-6.4,5-13.6,8.6-19.7l-.6-.7c-2.5,0-5.5.8-6.7,3.9-2,5.1-3.5,10.4-5.7,16.4-4.7,12.3-13.4,28.1-23,28.1s-6.2-2.5-6.2-6.6,1.8-9.6,6-21.4c4.5-12.4,6-15.7,6-17.7s-1.6-3.5-5.5-3.5-8.8,1.2-11.6,2.7v1c2.6-.6,5-.9,7.3-.9s3.3.1,5.2.6c-.8,2.8-3.5,10.6-6,17.7-4.7,12.8-6.2,17.4-6.2,22.1s3.9,9.9,9,9.9c7.5,0,14.7-5.8,22.1-20.6-2.3,6.4-4.3,12.6-4.3,16.3h0ZM125,70.3c2-5.1,3.6-11,5.9-17.1,4.1-11.5,12.9-28.2,24-28.2s6.1,2.7,6.1,6.7-1.8,9.9-6.1,21.4c-3.5,9-6.1,14.7-6.1,17.1s2,4.2,6.6,4.2,8.4-.8,11.2-2.5v-1c-1.9.3-3.7.6-5.4.6-3-.1-5.9-.7-7.8-1.5.7-2.5,3-8.8,6-16.8,4.2-11.3,6.5-17.3,6.5-22.4s-3-9.6-9.6-9.6-14.7,5.5-22.5,20.6c1.9-5,4.5-13.1,4.5-16s-2.2-4.7-5.5-4.7-8.7,1.2-11.6,2.7v1c2.6-.6,4.9-.9,7.3-.9s3.3.1,5,.4c.1,4.8-2,14.4-6.8,28.7-2.1,6.4-5.4,14.3-8.8,20.4l.4.7c2.3,0,5.4-.7,6.7-3.8h0ZM203.3,24c5.8,0,7.7,3.2,7.7,7.3,0,7.7-7.7,12.9-26.8,12,3.5-10.5,10.3-19.3,19.1-19.3h0ZM208.5,60c-6.4,8.1-12.8,10.8-17.5,10.8s-9-4.1-9-13.4.7-8.4,1.8-12.4c20.4,2.2,32-4.8,32-14.2s-2.8-9.7-11.2-9.7c-16.7,0-27.6,20.1-27.6,37.6s4,15.5,12.3,15.5,13.8-3.8,20.2-13.6l-1-.6h0ZM247.8,59.6c-3.2,4.9-8.7,11.5-15.1,11.5s-5.6-1.9-5.6-4.9c0-4.9,3.3-15.2,7-26.3,2.1-6,3.5-10.8,4.8-14.7h13.9c2.1,0,3.6-.6,4.5-2.1v-.8h-17.2c1.7-5,3.1-8.5,5.1-11.4v-.6c-6.2.6-7.6,3.9-9.9,11.9-2.9.1-7.9.4-9.4.7l-.8,1.7,9.1.6-4.5,13.8c-5.8,18.5-7.3,23.1-7.3,27.7s2.8,7.9,8.4,7.9c9.4,0,15.3-9.4,18.2-14.4l-1.2-.6h0ZM282.8,59.6c-3.2,4.9-8.7,11.5-15.1,11.5s-5.6-1.9-5.6-4.9c0-4.9,3.3-15.2,7-26.3,2.1-6,3.5-10.8,4.8-14.7h13.9c2.1,0,3.6-.6,4.5-2.1v-.8h-17.2c1.7-5,3.1-8.5,5.1-11.4v-.6c-6.2.6-7.6,3.9-9.9,11.9-2.9.1-7.9.4-9.4.7l-.8,1.7,9.2.6-4.5,13.8c-5.8,18.5-7.3,23.1-7.3,27.7s2.8,7.9,8.4,7.9c9.4,0,15.3-9.4,18.2-14.4l-1.3-.6h0ZM319.1,24c5.8,0,7.7,3.2,7.7,7.3,0,7.7-7.7,12.9-26.8,12,3.5-10.5,10.3-19.3,19.1-19.3h0ZM324.4,60c-6.4,8.1-12.8,10.8-17.5,10.8s-9-4.1-9-13.4.7-8.4,1.8-12.4c20.4,2.2,32-4.8,32-14.2s-2.8-9.7-11.2-9.7c-16.7,0-27.6,20.1-27.6,37.6s4,15.5,12.3,15.5,13.8-3.8,20.2-13.6l-1-.6h0Z"/>
    </g>
  </g>
</svg>