<?xml version="1.0" encoding="UTF-8"?>
<svg xmlns="http://www.w3.org/2000/svg" version="1.1" viewBox="0 0 477.6 89.8">
  <defs>
    <style>
      .cls-1 {
        fill: #283583;
      }
    </style>
  </defs>
  <!-- Generator: Adobe Illustrator 28.7.3, SVG Export Plug-In . SVG Version: 1.2.0 Build 164)  -->
  <g>
    <g id="Layer_1">
      <g>
        <path class="cls-1" d="M164,89.3h15.8v-3.9h-11.6v-18.2h-4.2v22.1h0ZM195.7,89.8c6.3,0,11.5-4.7,11.5-11.5s-5.2-11.5-11.5-11.5-11.5,4.7-11.5,11.5,5.1,11.5,11.5,11.5h0ZM188.6,78.3c0-4.3,3.1-7.6,7-7.6s7,3.3,7,7.6-3.1,7.6-7,7.6-7-3.4-7-7.6h0ZM228,89.3h4.8v-22.1h-4.1v15.3l-9.5-15.3h-5.6v22.1h4.1v-16.8l10.3,16.8h0ZM240.1,89.3h7c7.5,0,12.9-3.1,12.9-11s-5.4-11-12.9-11h-7v22h0ZM244.3,85.6v-14.6h2.3c5.8,0,9,2,9,7.3s-3.2,7.3-9,7.3h-2.3ZM276.6,89.8c6.3,0,11.5-4.7,11.5-11.5s-5.2-11.5-11.5-11.5-11.5,4.7-11.5,11.5,5.1,11.5,11.5,11.5h0ZM269.5,78.3c0-4.3,3.1-7.6,7-7.6s7,3.3,7,7.6-3.1,7.6-7,7.6-7-3.4-7-7.6h0ZM308.9,89.3h4.8v-22.1h-4.1v15.3l-9.5-15.3h-5.6v22.1h4.1v-16.8l10.3,16.8h0Z"/>
        <polygon class="cls-1" points="71.8 34.5 79.5 34.5 79.5 .9 72.8 .9 72.8 24.2 57.2 .9 48 .9 48 34.5 54.8 34.5 54.8 9 71.8 34.5"/>
        <polygon class="cls-1" points="91.4 34.5 114.5 34.5 114.5 28.5 97.7 28.5 97.7 20.6 109 20.6 109 14.6 97.7 14.6 97.7 6.9 113.3 6.9 113.3 .9 91.4 .9 91.4 34.5"/>
        <path class="cls-1" d="M18.9,35.2c10.4,0,18.9-7.1,18.9-17.5S29.3.2,18.9.2,0,7.3,0,17.7s8.5,17.5,18.9,17.5h0ZM7.4,17.7c0-6.5,5.1-11.6,11.5-11.6s11.5,5,11.5,11.6-5.1,11.6-11.5,11.6-11.5-5.1-11.5-11.6h0Z"/>
        <polygon class="cls-1" points="149.1 34.3 155.5 34.3 155.5 7.1 168.6 7.1 168.6 1.1 136 1.1 136 7.1 149.1 7.1 149.1 34.3"/>
        <polygon class="cls-1" points="197.6 20.4 183.2 20.4 183.2 34.3 176.8 34.3 176.8 1.1 183.2 1.1 183.2 14.3 197.6 14.3 197.6 1.1 203.9 1.1 203.9 34.3 197.6 34.3 197.6 20.4"/>
        <polygon class="cls-1" points="213 34.3 236 34.3 236 28.4 219.3 28.4 219.3 20.4 230.6 20.4 230.6 14.5 219.3 14.5 219.3 6.7 234.9 6.7 234.9 .8 213 .8 213 34.3"/>
        <polygon class="cls-1" points="268.9 34.3 275.3 34.3 275.3 7.1 288.4 7.1 288.4 1.1 255.8 1.1 255.8 7.1 268.9 7.1 268.9 34.3"/>
        <polygon class="cls-1" points="317.3 20.4 303 20.4 303 34.3 296.6 34.3 296.6 1.1 303 1.1 303 14.3 317.3 14.3 317.3 1.1 323.7 1.1 323.7 34.3 317.3 34.3 317.3 20.4"/>
        <path class="cls-1" d="M332.1,34.3h7.3l3.7-8.4h12.5l3.7,8.4h7.3L351.7.7h-4.7l-14.9,33.6h0ZM345.2,20l4.1-9.8,4.2,9.8h-8.3Z"/>
        <path class="cls-1" d="M393,34.1l12-23.3v23.6h6.1V1.1h-8.1l-10,20.2-10-20.2h-8.1v33.3h6.1V10.8l12,23.3h0ZM422.3,34.4h23.4v-5.9h-17v-7.9h11.5v-5.9h-11.5v-7.7h15.9V1.1h-22.3v33.3h0Z"/>
        <path class="cls-1" d="M466.1,35.2c7.3,0,11.5-4.6,11.5-10.2s-2.1-7.8-8.8-10.6c-5.8-2.4-7.3-3.4-7.3-5.5s1.5-3.3,4.3-3.3,5.3,2,6.7,3.7l4.3-3.8c-2.3-3.5-5.9-5.5-10.7-5.5-7.1,0-11.1,4.1-11.1,9.3s4.8,8.3,9.8,10.3c5.8,2.3,6.3,4.2,6.3,5.8s-1.8,3.6-5,3.6-6.1-2.2-8.2-4.5l-4.4,4c3,4.3,7.1,6.7,12.6,6.7h0Z"/>
      </g>
    </g>
  </g>
</svg>